<?xml version="1.0" encoding="UTF-8"?>
<svg width="277px" height="246px" viewBox="0 0 277 246" version="1.1" xmlns="http://www.w3.org/2000/svg" xmlns:xlink="http://www.w3.org/1999/xlink">
    <!-- Generator: Sketch 54.1 (76490) - https://sketchapp.com -->
    <title>Group</title>
    <desc>Created with Sketch.</desc>
    <defs>
        <rect id="path-1" x="0" y="0" width="288" height="256"></rect>
    </defs>
    <g id="Website" stroke="none" stroke-width="1" fill="none" fill-rule="evenodd">
        <g id="Desktop-HD-Copy" transform="translate(-1440.000000, -223.000000)">
            <g id="Group" transform="translate(1432.000000, 213.000000)">
                <mask id="mask-2" fill="white">
                    <use xlink:href="#path-1"></use>
                </mask>
                <g id="Mask"></g>
                <g mask="url(#mask-2)" fill="#BEB7A9">
                    <g transform="translate(8.000000, 10.000000)">
                        <path d="M190.911671,74.9441869 L194,43.0399819 C194,13.2303202 166.170351,0 139.586578,0 C113.001418,0 107.00512,19.9311725 107.00512,19.9311725 C98.3172861,20.9735273 92.3889701,26.3538763 88.6416307,31.4448383 C85.0469042,36.3292961 83.4930278,42.4457554 84.1451009,48.500404 L87.1127273,76.0118279 C87.2126194,79.3748972 87.5275568,82.8180396 88.040891,86.2920873 C86.7811412,88.5425623 86.0458247,91.2467846 86.0458247,94.1561065 C86.0458247,100.092753 89.1022441,105.169667 93.4364493,107.282472 C95.7214801,113.505696 98.5642414,119.501343 101.862067,124.970194 C107.206291,133.8274 107.088363,145.172491 101.179471,153.654618 C100.925579,154.019864 100.663362,154.378085 100.394208,154.727878 L138.999712,193 L177.605217,154.727878 C177.33745,154.378085 177.075234,154.021268 176.821341,153.656023 C170.912449,145.173896 170.794521,133.83021 176.137358,124.971598 C179.436571,119.502748 182.279332,113.505696 184.56575,107.281067 C188.898568,105.168262 191.9536,100.092753 191.9536,94.1561065 C191.9536,91.2467846 191.218284,88.5425623 189.959921,86.2920873 C190.527364,82.4485796 190.852013,78.6444059 190.911671,74.9441869" id="Fill-3"></path>
                        <path d="M93.808046,154.201426 L93.7274847,154.121138 L93.8205469,154 C93.8205469,154 60.1556578,164.078366 36.3525798,169.416872 C25.7865522,171.786098 17.4401265,180.002325 14.7135441,190.621585 L0,247.954881 C0,247.954881 33.44404,280 137,280 C90.1355631,235.260788 93.5733071,158.556746 93.808046,154.201426" id="Fill-4"></path>
                        <path d="M261.963147,190.670518 C259.178334,180.057072 250.647894,171.845343 239.850712,169.477414 C215.454504,164.126345 181.067319,154 181.067319,154 L181.217773,154.191462 L181.108481,154.298455 C181.363968,159.01038 184.734983,235.368342 137,279.971844 L137.001419,280 C242.822882,280 277,247.972425 277,247.972425 L261.963147,190.670518" id="Fill-5"></path>
                        <path d="M126.666603,180.940669 L138.500684,169 L150.333397,180.940669 C152.555534,183.182822 152.555534,186.817178 150.333397,189.059331 L138.500684,201 L126.666603,189.059331 C124.444466,186.817178 124.444466,183.182822 126.666603,180.940669" id="Fill-6"></path>
                        <polyline id="Fill-7" points="138.514873 279.985869 160 270.898077 145.560431 185 131.439569 185 117 270.898077 138.483711 279.985869 138.483711 280 138.499292 279.992934 138.514873 280 138.514873 279.985869"></polyline>
                    </g>
                </g>
            </g>
        </g>
    </g>
</svg>