<?xml version="1.0" encoding="UTF-8"?>
<svg width="1766px" height="1341px" viewBox="0 0 1766 1341" version="1.1" xmlns="http://www.w3.org/2000/svg" xmlns:xlink="http://www.w3.org/1999/xlink">
    <!-- Generator: Sketch 54.1 (76490) - https://sketchapp.com -->
    <title>illustration-2</title>
    <desc>Created with Sketch.</desc>
    <defs>
        <linearGradient x1="45.2268032%" y1="63.4532173%" x2="35.4188904%" y2="176.917935%" id="linearGradient-1">
            <stop stop-color="#FFF0CE" offset="0%"></stop>
            <stop stop-color="#FFDCA0" offset="100%"></stop>
        </linearGradient>
        <path d="M818.291218,602.895387 C818.291218,602.895387 818.159449,689.346251 797.867013,762.630947 L754.615757,789.659903 L602.120197,789.659903 C631.093888,712.667627 631.264413,602.895387 631.264413,602.895387 L818.291218,602.895387" id="path-2"></path>
        <filter x="-8.3%" y="-9.6%" width="116.7%" height="119.3%" filterUnits="objectBoundingBox" id="filter-3">
            <feOffset dx="0" dy="0" in="SourceAlpha" result="shadowOffsetOuter1"></feOffset>
            <feGaussianBlur stdDeviation="6" in="shadowOffsetOuter1" result="shadowBlurOuter1"></feGaussianBlur>
            <feColorMatrix values="0 0 0 0 0   0 0 0 0 0   0 0 0 0 0  0 0 0 0.24 0" type="matrix" in="shadowBlurOuter1"></feColorMatrix>
        </filter>
        <path d="M597.490114,562.032022 L554.232812,589.060979 L401.742492,589.060979 C430.715815,512.068702 430.886333,402.296463 430.886333,402.296463 L617.913513,402.296463 C617.913513,402.296463 617.781749,488.747326 597.490114,562.032022 Z" id="path-4"></path>
        <filter x="-8.3%" y="-9.6%" width="116.7%" height="119.3%" filterUnits="objectBoundingBox" id="filter-5">
            <feOffset dx="0" dy="0" in="SourceAlpha" result="shadowOffsetOuter1"></feOffset>
            <feGaussianBlur stdDeviation="6" in="shadowOffsetOuter1" result="shadowBlurOuter1"></feGaussianBlur>
            <feColorMatrix values="0 0 0 0 0   0 0 0 0 0   0 0 0 0 0  0 0 0 0.24 0" type="matrix" in="shadowBlurOuter1"></feColorMatrix>
        </filter>
        <path d="M617.913513,0.110441062 C617.913513,0.110441062 617.781749,86.559398 597.490114,159.842243 L554.232812,186.874957 L401.742492,186.874957 C430.715815,109.880678 430.886333,0.110441062 430.886333,0.110441062 L617.913513,0.110441062" id="path-6"></path>
        <filter x="-8.3%" y="-9.6%" width="116.7%" height="119.3%" filterUnits="objectBoundingBox" id="filter-7">
            <feOffset dx="0" dy="0" in="SourceAlpha" result="shadowOffsetOuter1"></feOffset>
            <feGaussianBlur stdDeviation="6" in="shadowOffsetOuter1" result="shadowBlurOuter1"></feGaussianBlur>
            <feColorMatrix values="0 0 0 0 0   0 0 0 0 0   0 0 0 0 0  0 0 0 0.24 0" type="matrix" in="shadowBlurOuter1"></feColorMatrix>
        </filter>
        <path d="M216.171021,602.895387 C216.171021,602.895387 216.04003,689.346251 195.748031,762.630947 L152.496155,789.659903 L-6.82121026e-13,789.659903 C28.973068,712.667627 29.1474645,602.895387 29.1474645,602.895387 L216.171021,602.895387" id="path-8"></path>
        <filter x="-7.4%" y="-7.5%" width="114.8%" height="117.1%" filterUnits="objectBoundingBox" id="filter-9">
            <feOffset dx="0" dy="2" in="SourceAlpha" result="shadowOffsetOuter1"></feOffset>
            <feGaussianBlur stdDeviation="5" in="shadowOffsetOuter1" result="shadowBlurOuter1"></feGaussianBlur>
            <feColorMatrix values="0 0 0 0 0   0 0 0 0 0   0 0 0 0 0  0 0 0 0.24 0" type="matrix" in="shadowBlurOuter1"></feColorMatrix>
        </filter>
        <path d="M416.548726,201.697538 C416.548726,201.697538 416.417735,288.145778 396.124961,361.425693 L352.87386,388.462054 L200.377705,388.462054 C229.349998,311.470735 229.525169,201.697538 229.525169,201.697538 L416.548726,201.697538" id="path-10"></path>
        <filter x="-8.3%" y="-9.6%" width="116.7%" height="119.3%" filterUnits="objectBoundingBox" id="filter-11">
            <feOffset dx="0" dy="0" in="SourceAlpha" result="shadowOffsetOuter1"></feOffset>
            <feGaussianBlur stdDeviation="6" in="shadowOffsetOuter1" result="shadowBlurOuter1"></feGaussianBlur>
            <feColorMatrix values="0 0 0 0 0   0 0 0 0 0   0 0 0 0 0  0 0 0 0.24 0" type="matrix" in="shadowBlurOuter1"></feColorMatrix>
        </filter>
        <path d="M818.291218,402.296463 C818.291218,402.296463 818.159449,488.747326 797.867013,562.032022 L754.615757,589.060979 L602.120197,589.060979 C631.093888,512.068702 631.264413,402.296463 631.264413,402.296463 L818.291218,402.296463" id="path-12"></path>
        <filter x="-8.3%" y="-9.6%" width="116.7%" height="119.3%" filterUnits="objectBoundingBox" id="filter-13">
            <feOffset dx="0" dy="0" in="SourceAlpha" result="shadowOffsetOuter1"></feOffset>
            <feGaussianBlur stdDeviation="6" in="shadowOffsetOuter1" result="shadowBlurOuter1"></feGaussianBlur>
            <feColorMatrix values="0 0 0 0 0   0 0 0 0 0   0 0 0 0 0  0 0 0 0.24 0" type="matrix" in="shadowBlurOuter1"></feColorMatrix>
        </filter>
        <linearGradient x1="0%" y1="49.9972526%" x2="99.9995176%" y2="49.9972526%" id="linearGradient-14">
            <stop stop-color="#32C5FF" offset="0%"></stop>
            <stop stop-color="#FA6400" stop-opacity="0.29955201" offset="100%"></stop>
        </linearGradient>
    </defs>
    <g id="Page-1" stroke="none" stroke-width="1" fill="none" fill-rule="evenodd">
        <g id="Artboard" transform="translate(-911.000000, -7938.000000)">
            <g id="illustration-2" transform="translate(911.000000, 7938.000000)">
                <path d="M64.4275361,419.842701 C161.476805,374.74566 230.797711,453.376398 331.313026,419.842701 C431.82834,386.309003 401.321165,250.637058 493.180566,158.942597 C585.039967,67.2481362 675.016463,97.5935925 729.369584,139.152596 C783.722705,180.711599 918.123151,514.173123 799.534522,878.309151 C680.945894,1242.44518 255.0975,1122.40123 126.550394,1010.90216 C-26.3158805,878.309151 -32.6217329,464.939742 64.4275361,419.842701 Z" id="Mask" fill-opacity="0.7" fill="url(#linearGradient-1)"></path>
                <g id="Group" transform="translate(1384.500000, 614.000000) scale(-1, 1) translate(-1384.500000, -614.000000) translate(928.000000, 0.000000)" fill="#B5DEFF">
                    <path d="M552.258368,592.357474 C424.303102,592.357474 320.575165,488.641331 320.575165,360.700614 C320.575165,232.759897 424.303102,129.043754 552.258368,129.043754 C680.213634,129.043754 783.941571,232.759897 783.941571,360.700614 C783.941571,488.641331 680.213634,592.357474 552.258368,592.357474 Z M853.381895,282.985227 C846.051391,254.603044 834.799629,227.819153 820.275989,203.182969 L853.993811,152.512093 L807.225943,105.76203 L760.483052,59.011966 L709.806414,92.7009808 C685.15494,78.1789926 658.355515,66.9409965 629.982592,59.6113258 L617.981545,0 L485.757731,0 L473.756684,59.6113258 C445.383761,66.9409965 418.584336,78.1789926 393.957838,92.7009808 L343.268712,59.011966 L249.770441,152.512093 L283.463286,203.182969 C268.939647,227.819153 257.700373,254.603044 250.35738,282.985227 L190.739276,294.98491 L190.739276,427.206177 L250.35738,439.193373 C257.700373,467.563069 268.939647,494.359447 283.463286,518.995631 L249.770441,569.666507 L343.268712,663.166634 L393.957838,629.465133 C418.584336,643.987121 445.383761,655.237604 473.756684,662.567274 L485.757731,722.1786 L617.981545,722.1786 L629.982592,662.567274 C658.355515,655.237604 685.15494,643.987121 709.806414,629.465133 L760.483052,663.166634 L807.225943,616.416571 L853.993811,569.666507 L820.275989,518.995631 C834.799629,494.359447 846.051391,467.563069 853.381895,439.193373 L913,427.206177 L913,294.98491 L853.381895,282.985227 L853.381895,282.985227 Z" id="Fill-343"></path>
                    <path d="M320.705881,1064.4563 C233.560467,1064.4563 162.909044,993.831463 162.909044,906.677407 C162.909044,819.541902 233.560467,748.898512 320.705881,748.898512 C407.851294,748.898512 478.502717,819.541902 478.502717,906.677407 C478.502717,993.831463 407.851294,1064.4563 320.705881,1064.4563 Z M525.718478,853.859073 C520.72657,834.524586 513.08097,816.266298 503.171382,799.492424 L526.126738,764.961252 L462.419594,701.261351 L427.92161,724.232652 C411.145828,714.342746 392.866907,706.679461 373.548778,701.669565 L365.383574,661.070852 L275.287977,661.070852 L267.104217,701.669565 C247.76753,706.679461 229.507166,714.342746 212.731385,724.232652 L178.214843,701.261351 L114.507699,764.961252 L137.463055,799.492424 C127.572024,816.266298 119.907867,834.524586 114.934516,853.859073 L74.2940717,862.023348 L74.2940717,952.108701 L114.934516,960.272976 C119.907867,979.588909 127.572024,997.847197 137.463055,1014.63963 L114.507699,1049.15224 L146.351992,1081.01147 L178.214843,1112.85214 L212.731385,1089.8994 C229.507166,1099.7893 247.76753,1107.45259 267.104217,1112.44393 L275.287977,1153.0612 L365.383574,1153.0612 L373.548778,1112.44393 C392.866907,1107.45259 411.145828,1099.7893 427.92161,1089.8994 L462.419594,1112.85214 L494.282445,1081.01147 L526.126738,1049.15224 L503.171382,1014.63963 C513.08097,997.847197 520.72657,979.588909 525.718478,960.272976 L566.340365,952.108701 L566.340365,862.023348 L525.718478,853.859073 L525.718478,853.859073 Z" id="Fill-344" transform="translate(320.317218, 907.066025) rotate(-22.000000) translate(-320.317218, -907.066025) "></path>
                </g>
                <g id="calendar" transform="translate(401.000000, 204.000000)">
                    <rect id="Rectangle" fill="#E4E4E4" x="11.8449875" y="89.9236559" width="819.2783" height="829.076344"></rect>
                    <g id="tasks" transform="translate(0.000000, 105.623968)">
                        <polygon id="Fill-52" fill="#FFFFFF" points="28.6253864 186.874957 215.183939 186.874957 215.183939 0.110441062 28.6253864 0.110441062"></polygon>
                        <polygon id="Fill-53" fill="#FFFFFF" points="229.990173 186.874957 416.548726 186.874957 416.548726 0.110441062 229.990173 0.110441062"></polygon>
                        <polygon id="Fill-54" fill="#FFFFFF" points="431.35496 386.48571 617.913513 386.48571 617.913513 200.709366 431.35496 200.709366"></polygon>
                        <polygon id="Fill-55" fill="#FFFFFF" points="631.732665 387.473882 818.291218 387.473882 818.291218 200.709366 631.732665 200.709366"></polygon>
                        <polygon id="Fill-56" fill="#FFFFFF" points="631.732665 186.874957 818.291218 186.874957 818.291218 0.110441062 631.732665 0.110441062"></polygon>
                        <polygon id="Fill-57" fill="#FFFFFF" points="229.990173 589.060979 416.548726 589.060979 416.548726 402.296463 229.990173 402.296463"></polygon>
                        <polygon id="Fill-58" fill="#B5DEFF" points="229.990173 789.659903 416.548726 789.659903 416.548726 602.895387 229.990173 602.895387"></polygon>
                        <polygon id="Fill-59" fill="#FFFFFF" points="431.35496 789.659903 617.913513 789.659903 617.913513 602.895387 431.35496 602.895387"></polygon>
                        <polygon id="Fill-60" fill="#B5DEFF" points="28.6253864 589.060979 215.183939 589.060979 215.183939 402.296463 28.6253864 402.296463"></polygon>
                        <g id="Fill-61">
                            <use fill="black" fill-opacity="1" filter="url(#filter-3)" xlink:href="#path-2"></use>
                            <use fill="#B5DEFF" fill-rule="evenodd" xlink:href="#path-2"></use>
                        </g>
                        <polyline id="Fill-62" fill="#8EAFCA" points="755.117951 789.659903 755.117951 761.991086 798.549572 761.991086 755.117951 789.659903"></polyline>
                        <g id="Fill-63">
                            <use fill="black" fill-opacity="1" filter="url(#filter-5)" xlink:href="#path-4"></use>
                            <use fill="#4BA2F4" fill-rule="evenodd" xlink:href="#path-4"></use>
                        </g>
                        <polyline id="Fill-64" fill="#375EAB" points="553.753164 589.060979 553.753164 561.392161 597.184785 561.392161 553.753164 589.060979"></polyline>
                        <g id="Fill-65">
                            <use fill="black" fill-opacity="1" filter="url(#filter-7)" xlink:href="#path-6"></use>
                            <use fill="#B5DEFF" fill-rule="evenodd" xlink:href="#path-6"></use>
                        </g>
                        <polyline id="Fill-66" fill="#8EAFCA" points="553.753164 186.874957 553.753164 159.20614 597.184785 159.20614 553.753164 186.874957"></polyline>
                        <g id="Fill-67">
                            <use fill="black" fill-opacity="1" filter="url(#filter-9)" xlink:href="#path-8"></use>
                            <use fill="#FFFFFF" fill-rule="evenodd" xlink:href="#path-8"></use>
                        </g>
                        <polyline id="Fill-68" fill="#C9C9C9" points="152.010673 790.648075 152.010673 762.979258 195.442293 762.979258 152.010673 790.648075"></polyline>
                        <polygon id="Fill-51" fill="#FFFFFF" points="28.6253864 388.462054 215.183939 388.462054 215.183939 201.697538 28.6253864 201.697538"></polygon>
                        <g id="Fill-69">
                            <use fill="black" fill-opacity="1" filter="url(#filter-11)" xlink:href="#path-10"></use>
                            <use fill="#4BA2F4" fill-rule="evenodd" xlink:href="#path-10"></use>
                        </g>
                        <polyline id="Fill-70" fill="#375EAB" points="353.37546 388.462054 353.37546 360.793237 396.80708 360.793237 353.37546 388.462054"></polyline>
                        <g id="Fill-73">
                            <use fill="black" fill-opacity="1" filter="url(#filter-13)" xlink:href="#path-12"></use>
                            <use fill="#FFFFFF" fill-rule="evenodd" xlink:href="#path-12"></use>
                        </g>
                        <polyline id="Fill-74" fill="#C9C9C9" points="755.117951 589.060979 755.117951 561.392161 798.549572 561.392161 755.117951 589.060979"></polyline>
                    </g>
                    <g id="header" transform="translate(10.857905, 0.000000)">
                        <polygon id="Fill-35" fill="#FFFFFF" points="819.828365 89.6780271 819.828365 0 0.987082289 0 5.68434189e-14 89.6780271"></polygon>
                        <polygon id="Fill-35" fill="url(#linearGradient-14)" points="819.828365 89.6780271 819.828365 0 0.987082289 0 0 89.6780271"></polygon>
                    </g>
                </g>
                <g id="girl-rest" transform="translate(1306.500000, 1182.500000) scale(-1, 1) translate(-1306.500000, -1182.500000) translate(935.000000, 1024.000000)">
                    <path d="M100.767944,164.757597 L97.9588204,160.985285 C97.9588204,160.985285 80.8091373,145.559637 78.9249344,143.863247 C78.3293201,143.328453 77.5590304,141.870707 76.7400607,140.062183 C74.9532178,136.120233 72.9458831,130.527896 72.0982781,129.340423 C70.8640965,127.60953 62.3479574,123.983856 59.8681401,123.302424 C57.3854593,122.620993 8.40477321,136.284121 6.19985486,137.715989 C3.99493652,139.144982 7.83779421,143.845995 12.6342075,145.053595 C17.4248937,146.266945 48.4970612,150.939206 51.1315091,151.450998 C53.7688205,151.95704 60.7730157,154.846653 65.7469678,159.320523 C70.7180565,163.794392 88.0366878,179.372428 88.0366878,179.372428 L100.767944,164.757597" id="Fill-26" fill="#E2896D"></path>
                    <path d="M78.5204756,136.477585 C78.5204756,136.477585 78.4600695,141.379047 71.2199754,143.735189 C63.9798813,146.088464 59.3458759,137.776042 53.0809077,141.462171 C46.8159395,145.1483 45.0986823,150.316333 45.0986823,150.316333 C45.0986823,150.316333 44.0516445,152.967709 40.7523247,153.271542 C37.4530049,153.575376 10.4428802,147.09742 8.58467567,146.054067 C6.72359467,145.013582 1.81920036,140.711187 3.17977426,137.128247 C4.53747169,133.545307 68.4930746,118.711934 68.4930746,118.711934 C68.4930746,118.711934 76.6536416,124.137939 78.5204756,136.477585" id="Fill-27" fill="#FFCF1D"></path>
                    <path d="M68.2221979,121.92836 C69.9686107,121.470826 71.0187601,119.672546 70.5612978,117.914806 C70.1038354,116.151275 68.3171429,115.100106 66.5707301,115.55764 L2.44544402,132.451632 C0.696154094,132.912061 -0.348241045,134.710342 0.106344167,136.470977 C0.563806501,138.228717 2.35049901,139.282781 4.09691182,138.825248 L68.2221979,121.92836" id="Fill-28" fill="#FFFFFE"></path>
                    <path d="M593.835577,194.374486 L603.47549,202.164721 C603.47549,202.164721 624.364859,257.944072 625.280881,260.677538 C626.199794,263.411004 624.821425,281.638894 619.773185,288.01507 C614.722056,294.396983 601.409382,293.028815 600.031013,287.105827 C598.652644,281.17997 569.273448,214.653192 569.273448,214.653192 L593.835577,194.374486" id="Fill-29" fill="#FFFFFE"></path>
                    <path d="M593.835577,194.374486 L603.47549,202.164721 C603.47549,202.164721 624.364859,257.944072 625.280881,260.677538 C626.199794,263.411004 624.821425,281.638894 619.773185,288.01507 C614.722056,294.396983 601.409382,293.028815 600.031013,287.105827 C598.652644,281.17997 569.273448,214.653192 569.273448,214.653192 L593.835577,194.374486 Z" id="Stroke-30" stroke="#181A18" stroke-width="0.216" stroke-linecap="round" stroke-linejoin="round"></path>
                    <path d="M609.37355,102.751715 C609.37355,102.751715 607.066964,131.370748 614.822609,151.006434 C614.822609,151.006434 617.545702,155.807286 613.564471,159.357111 C609.58324,162.906936 585.270729,177.74177 546.495377,177.74177 C507.72577,177.74177 474.821728,141.814105 474.402349,137.637335 C473.982969,133.457702 490.585794,106.264324 492.972809,81.5329218 L609.37355,102.751715" id="Fill-31" fill="#0D0E10"></path>
                    <path d="M411.250991,244.393724 C411.250991,244.393724 397.802391,246.664147 388.458942,239.377007 C379.115493,232.089867 351.997402,203.170643 296.395706,226.393743 C289.811974,229.145771 283.606914,231.780264 277.766182,234.294356 C325.014142,214.611624 351.449475,244.941263 366.223427,254.111822 C381.264171,263.451516 386.74918,258.684202 386.74918,258.684202 L402.455469,264.81893 C402.455469,264.81893 405.131993,264.44626 409.423611,263.686585 L411.250991,244.393724" id="Fill-32" fill="#00446B"></path>
                    <path d="M552.260678,156.995446 L560.406167,150.346708 C560.406167,150.346708 577.110446,152.664301 592.38539,177.954175 C592.38539,177.954175 602.760987,195.840945 603.78563,197.094396 C604.813145,198.347847 604.586403,200.854748 604.586403,200.854748 C604.586403,200.854748 589.650136,221.130819 573.235742,220.448162 C556.821348,219.765504 552.260678,156.995446 552.260678,156.995446" id="Fill-33" fill="#FFCF1D"></path>
                    <path d="M189.166727,93.6994413 L190.084983,89.1468138 C190.084983,89.1468138 190.079226,66.3722085 190.079226,63.8665432 C190.079226,63.0752805 190.64342,61.547226 191.432142,59.7582842 C193.153512,55.8507078 195.939945,50.6960325 196.253706,49.2912545 C196.711395,47.2414253 193.737857,38.5862726 192.595074,36.3070919 C191.452292,34.0307782 148.921779,6.93289683 146.40593,6.25057608 C143.89296,5.56825532 142.977582,11.4883913 145.263147,15.8145342 C147.548713,20.1406771 164.699088,46.1004016 166.072154,48.3795822 C167.442342,50.655896 169.958191,57.7170557 169.958191,64.3223793 C169.958191,70.9219691 169.958191,93.9259259 169.958191,93.9259259 L189.166727,93.6994413" id="Fill-34" fill="#E2896D"></path>
                    <path d="M195.310319,59.0731974 C195.310319,59.0731974 191.682356,62.2594566 185.219957,58.5029945 C178.757559,54.7522632 181.820347,45.8725714 175.018274,43.709239 C168.213345,41.5459065 163.303749,43.6949123 163.303749,43.6949123 C163.303749,43.6949123 160.674832,44.6777242 158.294249,42.4599503 C155.913666,40.239311 142.988869,16.1704467 142.535017,14.1217279 C142.084019,12.0730091 142.026931,5.6403186 145.540717,4.27641629 C149.054503,2.91251398 201.772717,40.0129491 201.772717,40.0129491 C201.772717,40.0129491 203.131419,49.5717267 195.310319,59.0731974" id="Fill-35" fill="#FFCF1D"></path>
                    <path d="M199.129829,42.1866775 C200.619315,43.1710622 202.627384,42.7640292 203.615574,41.2686882 C204.600882,39.7791206 204.194658,37.764163 202.702291,36.7768914 L147.997522,0.539407922 C146.505154,-0.450750355 144.497085,-0.037943843 143.511777,1.45162371 C142.523588,2.94696478 142.932692,4.95903568 144.422178,5.9463072 L199.129829,42.1866775" id="Fill-36" fill="#FFFFFE"></path>
                    <path d="M211.350947,266.606187 C186.347174,245.500583 103.709147,161.80397 92.7202459,152.027172 C92.7202459,152.027172 89.3954138,147.899 85.7947096,151.484973 C82.1940055,155.070946 69.5929779,167.621853 69.5929779,167.621853 C69.5929779,167.621853 66.5785017,172.415581 70.0470172,176.865057 C73.5155326,181.314532 150.299902,274.532622 181.844139,311.12963 L211.350947,266.606187" id="Fill-37" fill="#00446B"></path>
                    <path d="M278.040681,227.26499 C234.47871,245.987034 214.932298,265.202442 207.201104,267.345136 C199.469911,269.487831 197.162049,118.653044 195.791127,95.4132711 C195.791127,95.4132711 196.475151,89.0339506 190.313189,89.0339506 C184.148352,89.0339506 168.280724,89.0339506 168.280724,89.0339506 C168.280724,89.0339506 161.776749,89.0339506 160.74784,97.3465723 C156.462632,132.045601 134.139888,317 179.469399,317 C202.297976,317 404.225831,317 404.225831,317 L409.942316,256.67469 C405.639864,257.434816 402.96125,257.807708 402.96125,257.807708 L387.222954,251.672202 C387.222954,251.672202 381.730645,256.439482 366.662002,247.097104 C351.857772,237.918226 325.373405,207.570559 278.040681,227.26499" id="Fill-38" fill="#285173"></path>
                    <path d="M570.884353,156.068212 C570.884353,156.068212 576.941731,163.106864 579.914253,176.310069 C582.889655,189.516139 576.711303,231.859822 576.711303,237.548635 C576.711303,243.240314 565.731406,257.581281 562.528456,261.453113 C559.325506,265.322079 501.894193,304.249608 489.998345,309.71488 C478.102497,315.177287 472.609668,317 465.287816,317 C457.965965,317 394.474394,317 394.474394,317 C394.474394,317 384.75033,315.974008 384.75033,309.032796 C384.75033,302.088719 384.75033,265.663121 384.75033,256.787426 C384.75033,247.906 400.304224,249.728713 425.475609,226.509185 C450.641233,203.289658 465.313739,147.780027 518.836416,147.780027 C518.836416,147.780027 559.452241,143.527031 570.884353,156.068212" id="Fill-39" fill="#FFDF69"></path>
                    <path d="M558.804051,264.126082 C546.040399,273.945893 500.151551,304.884315 489.673583,309.713964 C477.814441,315.177058 472.338562,317 465.039303,317 C457.740045,317 394.444389,317 394.444389,317 C394.444389,317 384.75033,315.973879 384.75033,309.031794 L384.75033,296.979167 C401.683347,296.638081 412.393903,290.295046 412.393903,290.295046 L430.768394,304.861384 L439.959947,246.859726 L447.075431,198.288066 L476.174836,217.724182 C476.174836,217.724182 477.527295,223.39078 479.959424,236.340548 C482.391553,249.287449 496.987199,264.126082 514.28202,264.126082 L558.804051,264.126082" id="Fill-40" fill="#FFCF1D"></path>
                    <path d="M525.432849,139.404808 C525.432849,146.421039 525.432849,154.178522 525.432849,159.127802 C525.432849,170.072667 533.078873,177.74177 543.415698,177.74177 C543.908339,177.74177 544.40098,177.718962 544.899384,177.679048 C545.394906,177.718962 545.893309,177.74177 546.383069,177.74177 C556.719894,177.74177 564.365918,170.072667 564.365918,159.127802 C564.365918,154.178522 564.365918,146.421039 564.365918,139.404808 C560.923191,135.858205 552.870954,131.014411 544.899384,128.822016 C536.927813,131.014411 528.875576,135.858205 525.432849,139.404808" id="Fill-41" fill="#EBA87F"></path>
                    <path d="M591.926218,108.27811 C584.794798,108.142456 578.899722,113.799493 578.763637,120.911197 C578.630448,128.025787 584.302576,133.902179 591.436892,134.037832 C598.574104,134.1706 604.46918,128.516449 604.605265,121.404745 C604.741349,114.290155 599.066325,108.413763 591.926218,108.27811" id="Fill-42" fill="#EBA87F"></path>
                    <path d="M501.969238,106.974516 C501.650745,107.017442 501.335146,107.068954 501.022444,107.134775 L501.013757,107.137637 L501.013757,107.134775 C495.249023,108.330996 490.871184,113.327652 490.755368,119.394612 C490.619285,126.446022 496.297157,132.272592 503.431413,132.407096 C510.56567,132.541599 516.463592,126.932523 516.596781,119.878252 C516.677852,115.780192 514.792949,112.09709 511.802004,109.704647 C512.129184,113.476465 511.524046,118.144017 506.653989,118.610486 L506.795864,111.24142 C506.853772,108.262314 504.039447,106.894386 501.969238,106.974516" id="Fill-43" fill="#EBA87F"></path>
                    <path d="M552.331698,43.0572793 L552.331698,43.0572793 C528.158991,42.6013118 508.011235,61.9498183 507.551241,86.0558722 L506.79225,125.894238 C506.332256,150.000292 525.732521,170.100141 549.902353,170.558976 C574.06931,171.014943 594.21994,151.666437 594.679935,127.557515 L595.438925,87.7220175 C595.89892,63.6130959 576.498655,43.5161145 552.331698,43.0572793" id="Fill-44" fill="#EBA87F"></path>
                    <path d="M552.265054,43.0572795 L552.265054,43.0572795 C528.127716,42.6013015 508.00944,61.9502544 507.550119,86.0568645 L506.792239,125.896149 C506.332917,150.005627 525.704796,170.103072 549.839263,170.55905 C550.73781,170.576257 551.627745,170.564786 552.517681,170.527505 C524.275158,168.841246 520.069497,142.274076 519.234106,125.121847 C518.395845,107.963883 527.088501,90.2811134 532.218547,83.6909409 C537.351463,77.0979007 549.187601,81.07552 555.155908,89.3404796 C561.127085,97.6054392 573.810097,104.855202 574.034016,105.004327 C574.260806,105.153452 580.516189,105.391478 580.516189,105.391478 L585.63188,87.0892675 C585.63188,87.0892675 574.034016,61.0382984 566.222682,45.6268158 C561.850517,44.0524012 557.153956,43.1490486 552.265054,43.0572795" id="Fill-45" fill="#E2896D"></path>
                    <path d="M506.457067,104.36214 L510.971497,104.751149 C510.971497,104.751149 515.245279,117.901982 506.527129,118.711934 L506.676392,111.236571 C506.68553,110.72273 506.60633,110.252436 506.457067,109.82859 L506.457067,104.36214" id="Fill-46" fill="#0D0E10"></path>
                    <path d="M548.670873,138.533357 C548.421755,144.807752 553.346175,150.090546 559.663915,150.337728 C565.990345,150.58491 571.314511,145.698757 571.563628,139.427236 L571.543351,139.427236 C571.586802,138.349408 570.732271,137.429661 569.643105,137.389422 L550.744923,136.650751 C549.655757,136.607638 548.734601,137.455529 548.688253,138.533357 L548.670873,138.533357" id="Fill-47" fill="#FFFFFE"></path>
                    <path d="M543.754293,55.4020674 L540.497477,62.0858104 C540.497477,62.0858104 531.134852,58.1702271 528.317677,70.932447 C525.500501,83.6917983 519.776487,118.105903 491.41673,107.621319 C491.41673,107.621319 490.57794,65.2383569 504.730341,53.1215628 C518.885635,40.9990316 543.754293,55.4020674 543.754293,55.4020674" id="Fill-48" fill="#0D0E10"></path>
                    <path d="M525.432849,81.5329218 C521.468304,96.2099152 513.122952,114.679935 491.416998,106.658523 C491.416998,106.658523 491.3481,103.226872 491.577762,98.0480962 C515.020537,108.451176 525.355338,81.7264145 525.432849,81.5329218" id="Fill-49" fill="#1C120F"></path>
                    <path d="M525.432849,81.5329218 C521.468304,96.2099152 513.122952,114.679935 491.416998,106.658523 C491.416998,106.658523 491.3481,103.226872 491.577762,98.0480962 C515.020537,108.451176 525.355338,81.7264145 525.432849,81.5329218" id="Fill-50" fill="#0D0E10"></path>
                    <path d="M542.728468,63.1916493 C556.095295,71.0797901 563.515247,90.868984 575.696145,103.074089 C566.03068,97.0045234 559.489406,86.9421241 553.611448,77.8951438 C549.941673,72.2414981 546.515975,66.9664833 542.728468,63.1916493 Z M525.473633,60.2027611 L525.71771,60.1654717 C526.00486,60.3949449 526.392512,60.4867342 526.774422,60.3806028 C537.465011,57.3888461 543.97757,67.4110876 551.627243,79.183062 C559.351574,91.0755099 568.184304,104.663191 583.670296,109.335839 C584.973957,110.090232 586.329304,110.758572 587.750696,111.312177 C613.723402,121.437681 635.515205,88.2300424 617.019882,57.6125825 C597.183569,24.7749695 540.012031,5.76311604 522.467174,45.570977 C522.467174,45.570977 518.91513,54.1618795 525.473633,60.2027611 L525.473633,60.2027611 Z" id="Fill-51" fill="#101522"></path>
                    <path d="M542.700305,63.4296378 C556.049393,71.3316901 563.459498,91.1557843 575.62423,103.382414 C565.971593,97.3021443 559.439,87.221999 553.568842,78.1590633 C549.903937,72.4954469 546.482786,67.211129 542.700305,63.4296378 Z M525.468368,60.4354783 L525.712122,60.3981231 C525.998891,60.628001 526.386029,60.7199522 526.767431,60.6136337 C537.443833,57.6166007 543.947749,67.6565174 551.58727,79.4492529 C559.301351,91.3626744 568.122359,104.974319 583.5878,109.655207 C584.88973,110.410931 586.243279,111.08045 587.662784,111.63503 C605.689071,118.683661 621.690769,104.770302 623.583443,85.3341268 C623.37697,86.2593853 619.714932,101.853726 606.5207,103.687003 C592.919256,105.574875 574.090017,89.4317001 564.884739,72.866125 C555.676593,56.3062968 543.22796,51.2317424 535.32748,51.3581753 C527.444205,51.4817346 522.531856,46.2433923 527.762519,36.8528807 C525.743666,39.4246395 523.959965,42.3814438 522.465899,45.7778896 C522.465899,45.7778896 518.918569,54.3839429 525.468368,60.4354783 L525.468368,60.4354783 Z" id="Fill-52" fill="#0D0E10"></path>
                    <path d="M445.40647,213.290123 L429.677856,224.248774 C429.677856,224.248774 406.860168,275.271952 404.350711,281.174303 C401.844124,287.08237 397.965089,317 420.774163,317 C443.580366,317 579.742845,317 579.742845,317 C579.742845,317 575.636981,298.658409 558.300477,298.658409 C540.966844,298.658409 464.790164,298.658409 457.264662,298.658409 C449.736289,298.658409 446.54635,299.567343 444.947073,293.893654 C443.350667,288.21425 476.421528,239.17186 476.421528,239.17186 L445.40647,213.290123" id="Fill-53" fill="#EBA87F"></path>
                    <path d="M445.567247,213.290123 L429.779809,224.25133 C429.779809,224.25133 406.876784,275.273102 404.357941,281.17529 C401.84198,287.083195 397.948437,317 420.842816,317 L537.865258,317 C536.236944,311.300744 534.346371,307.282112 534.346371,307.282112 C534.346371,307.282112 424.583615,308.868414 414.992415,305.1699 C405.401215,301.471386 437.904086,237.530539 437.904086,237.530539 C437.904086,237.530539 457.13548,242.423781 468.084089,252.20455 C472.974794,244.676045 476.698301,239.174005 476.698301,239.174005 L445.567247,213.290123" id="Fill-54" fill="#E2896D"></path>
                    <path d="M502.071458,149.368313 C502.071458,149.368313 479.7304,150.680655 455.747549,177.826326 C455.747549,177.826326 440.672367,197.672272 430.166032,215.918712 C430.166032,215.918712 428.682379,219.798306 429.481712,223.901888 C429.481712,223.901888 457.866643,221.211156 470.198791,248.127095 C470.198791,248.127095 473.166098,248.810547 474.310466,248.356827 C475.451959,247.900235 507.134855,208.960713 511.249405,203.487356 C515.358205,198.013998 532.736499,162.009299 502.071458,149.368313" id="Fill-55" fill="#FFCF1D"></path>
                    <path d="M564.428829,317 L495.270422,317 C491.708751,317 488.78996,314.062865 488.78996,310.475922 C488.78996,306.888979 491.708751,303.954733 495.270422,303.954733 L564.428829,303.954733 C567.99337,303.954733 570.909291,306.888979 570.909291,310.475922 C570.909291,314.062865 567.99337,317 564.428829,317" id="Fill-56" fill="#101522"></path>
                    <path d="M702.914037,317 L550.844183,317 C546.499988,317 543.868713,313.459521 544.997225,309.133542 L570.619051,211.049366 C571.747563,206.72052 576.227064,203.180041 580.571259,203.180041 L732.641112,203.180041 C736.985307,203.180041 739.613703,206.72052 738.485192,211.049366 L712.866245,309.133542 C711.734854,313.459521 707.258232,317 702.914037,317" id="Fill-57" fill="#101522"></path>
                    <path d="M707.244383,317 L559.988613,317 C555.654097,317 553.031557,313.459521 554.157555,309.133542 L579.719421,211.049366 C580.848291,206.72052 585.314939,203.180041 589.652328,203.180041 L736.905226,203.180041 C741.239742,203.180041 743.865154,206.72052 742.739157,211.049366 L717.17729,309.133542 C716.04842,313.459521 711.578899,317 707.244383,317" id="Fill-58" fill="#0D0E10"></path>
                </g>
                <g id="girl-search" transform="translate(401.000000, 855.500000) scale(-1, 1) translate(-401.000000, -855.500000) translate(116.000000, 370.000000)">
                    <path d="M461.003513,122.664553 C461.003513,122.664553 446.136376,131.353662 444.350389,156.892138 C442.564402,182.433456 430.491242,264.800867 427.546777,269.159638 C424.60799,273.521252 322.877706,301.2974 317.272716,304.160598 L255.041426,324.987734 C255.041426,324.987734 271.830842,335.269088 282.984033,332.764145 C294.140065,330.256359 290.147858,328.502046 294.157101,327.370415 C298.166344,326.238783 420.238143,304.123635 430.667286,302.463151 C441.099268,300.802667 456.798351,295.087644 467.38934,273.481446 C477.971811,251.880934 495.715267,173.693167 496.266112,161.981635 C496.816957,150.270104 490.81729,109.59677 461.003513,122.664553" id="Fill-136" fill="#E2896D"></path>
                    <path d="M238.721661,296.618009 L238.716792,296.618009 C235.595765,299.860886 234.164279,304.470512 236.710765,308.207638 L360.797172,490.181962 C363.343658,493.919088 367.56021,492.259825 371.986129,492.259825 C376.407179,492.259825 376.543511,484.407321 373.992156,480.670195 L249.910618,298.695871 C247.364132,294.958745 241.847558,293.380175 238.721661,296.618009" id="Fill-137" stroke="#ECF3B1" fill="#FFCF1D"></path>
                    <path d="M209.539533,279.829258 L225.811968,303.387981 C231.016879,310.925744 240.425976,313.479272 246.722331,309.066296 C253.021521,304.65332 253.911685,294.876221 248.703939,287.335602 L232.434339,263.776879 L209.539533,279.829258" id="Fill-138" stroke="#FFFFFF" fill="#FFCF1D"></path>
                    <path d="M210.825091,269.994944 C277.270141,269.994944 199.54896,160.589241 199.54896,105.54482 C199.54896,50.5003977 93.296449,5.87807723 60.2515362,14.4856595 C27.2066234,23.0932418 17.0495413,66.3576686 20.2286948,105.54482 C23.4078482,144.731971 144.380041,269.994944 210.825091,269.994944 Z" id="Oval" fill-opacity="0.4" fill="#285173"></path>
                    <path d="M56.734086,12.7852294 C89.7492144,-10.2089178 154.783998,26.1882801 201.993058,94.081592 C249.206337,161.974904 260.704898,235.655801 227.68977,258.649948 L210.92701,270.322211 L207.518779,265.416905 C206.755302,265.467563 205.987606,265.497113 205.211474,265.51822 C211.285549,253.774192 218.498513,237.880496 220.784728,224.87426 C224.977527,201.07804 205.751392,139.795493 141.412597,71.3660593 C90.5801816,17.3063844 54.0260609,21.6206893 40.9161825,25.8210154 L39.9713263,24.4574925 L56.734086,12.7852294" id="Fill-139" fill="#FFDF69"></path>
                    <path d="M23.8333175,23.1644834 C-14.9695574,50.0945649 -5.30900293,130.855295 45.4163069,203.550071 C96.1416167,276.244847 168.71204,313.344861 207.519143,286.414779 L227.216528,272.741027 L223.551013,267.491622 C223.9442,266.707373 224.316247,265.906259 224.675611,265.096712 C209.620367,267.504271 189.686225,269.696794 174.969205,267.698225 C148.046487,264.025749 91.9307142,223.012926 48.206664,132.115995 C13.6611975,60.306661 34.3394348,23.3247062 44.5453772,10.9538186 L43.5307019,9.49073138 L23.8333175,23.1644834" id="Fill-140" fill="#FFDF69"></path>
                    <path d="M57.8953234,29.4000657 C87.775926,8.68514705 146.923436,41.87624 189.996367,103.540332 C233.069298,165.200208 243.76029,231.978731 213.875455,252.702082 C183.99062,273.421217 124.847342,240.225908 81.7744112,178.566032 C38.7014802,116.90194 28.0104883,50.1192007 57.8953234,29.4000657 Z M43.8173581,9.43037339 C4.98858734,36.3591848 14.655589,117.116106 65.4189819,189.81167 C116.178144,262.498801 188.80123,299.601281 227.62577,272.668254 C266.45454,245.743658 256.787539,164.986737 206.028377,92.2953897 C155.273445,19.5998259 82.6461288,-17.4900056 43.8173581,9.43037339 L43.8173581,9.43037339 Z" id="Fill-141" fill="#FFCF1D"></path>
                    <path d="M473.560181,907.183013 L474.694451,916.37136 L470.566646,968.524132 C470.566646,968.524132 470.283079,971 468.540747,971 C466.795493,971 465.792775,971 465.792775,971 C465.792775,971 464.369092,970.908829 464.22877,967.398738 C464.085524,963.888647 465.596909,910.214455 465.596909,910.214455 L473.560181,907.183013" id="Fill-142" fill="#285173"></path>
                    <path d="M410.657146,954.195988 C410.657146,954.195988 408.806637,954.195988 407.778263,954.195988 C406.747063,954.195988 401.12208,958.121866 397.251549,962.803269 C397.251549,962.803269 395.833297,965.015673 397.940899,966.925868 C400.045677,968.833212 401.246389,971 409.238894,971 C417.228573,971 444.29121,971 444.29121,971 C444.29121,971 450.735502,970.957234 453.312089,961.853873 C455.891501,952.747661 462.335793,921.62289 463.279412,919.193806 C463.279412,919.193806 463.796424,916.334216 467.664129,916.334216 C471.52901,916.334216 474.619784,916.334216 474.619784,916.334216 C474.619784,916.334216 476.769765,916.071921 476.769765,911.304987 C476.769765,906.532351 480.467958,891.011305 457.270201,890.492417 C457.270201,890.492417 436.307181,942.167463 431.495857,947.715581 C426.681708,953.26655 410.657146,954.195988 410.657146,954.195988" id="Fill-143" fill="#285173"></path>
                    <path d="M452.354082,747.149646 L441.526283,889.958765 L427.419143,944.671736 C427.419143,944.671736 426.292847,947.951277 422.228511,948.470893 C418.164176,948.987669 411.156113,949.765673 410.206156,955.291203 C410.206156,955.291203 427.589794,955.291203 430.792342,955.291203 C433.992046,955.291203 436.847604,953.823218 437.712236,950.802065 C437.931238,950.038258 446.896098,926.456794 459.504354,891.457983 C461.7797,885.137413 472.075637,811.045333 472.075637,811.045333 L452.354082,747.149646" id="Fill-144" fill="#E2896D"></path>
                    <path d="M468.070349,315.738008 L454.454517,339.163333 C454.454517,339.163333 457.254936,355.097325 451.767704,392.403483 C446.277633,429.712481 443.511295,572.161404 444.04525,614.556444 C444.582044,656.954323 447.652281,790.403991 437.893415,861.370033 C437.893415,861.370033 436.430722,870.281255 441.628255,870.925884 C446.822948,871.567674 456.749384,872.802977 460.569428,873.27722 C464.386633,873.751463 471.262713,874.606236 473.790475,859.180564 C476.315397,843.754893 493.092352,651.987552 497.622442,624.330958 C501.672542,599.624893 567.081932,455.5147 557.950747,370.383848 C554.539689,362.744846 551.733589,359.141168 551.733589,359.141168 L539.492405,333.517855 C521.426007,320.443519 486.983121,299.735861 468.070349,315.738008" id="Fill-145" fill="#00446B"></path>
                    <path d="M564.56164,907.183013 L565.698237,916.37136 L561.569672,968.524132 C561.569672,968.524132 561.283331,971 559.541912,971 C557.803415,971 556.798301,971 556.798301,971 C556.798301,971 555.372441,970.908829 555.232193,967.398738 C555.091944,963.888647 556.599616,910.214455 556.599616,910.214455 L564.56164,907.183013" id="Fill-146" fill="#285173"></path>
                    <path d="M501.328868,954.195988 C501.328868,954.195988 499.483955,954.195988 498.452726,954.195988 C497.421496,954.195988 491.793524,958.121866 487.928532,962.803269 C487.928532,962.803269 486.510238,965.015673 488.615077,966.925868 C490.719915,968.833212 491.923488,971 499.910574,971 C507.903311,971 534.96956,971 534.96956,971 C534.96956,971 541.414039,970.957234 543.990701,961.853873 C546.567363,952.747661 553.011842,921.62289 553.958313,919.193806 C553.958313,919.193806 554.475341,916.334216 558.340333,916.334216 C562.205326,916.334216 565.30184,916.334216 565.30184,916.334216 C565.30184,916.334216 567.446233,916.071921 567.446233,911.304987 C567.446233,906.532351 571.144534,891.011305 547.943277,890.492417 C547.943277,890.492417 526.982473,942.167463 522.17101,947.715581 C517.359546,953.26655 501.328868,954.195988 501.328868,954.195988" id="Fill-147" fill="#285173"></path>
                    <path d="M517.920603,726.859117 L532.100503,889.98394 L517.891957,944.675828 C517.891957,944.675828 516.757565,947.954106 512.664014,948.473521 C508.570463,948.990098 501.512024,949.767802 500.555239,955.291203 C500.555239,955.291203 518.066699,955.291203 521.289404,955.291203 C524.512108,955.291203 527.388193,953.823784 528.259039,950.803795 C528.479615,950.040282 537.508917,926.467905 550.204941,891.482581 C552.499506,885.164446 555.550333,804.501787 555.550333,804.501787 L517.920603,726.859117" id="Fill-148" fill="#E2896D"></path>
                    <path d="M465.074952,320.061807 L455.380698,344.933594 C455.380698,344.933594 460.748379,360.373704 461.365648,397.99246 C461.982917,435.614056 482.384088,577.032396 489.799851,618.955065 C497.218459,660.874893 521.946203,792.662695 523.800854,864.144581 C523.800854,864.144581 523.800854,873.147287 529.054753,873.147287 C534.305808,873.147287 544.352787,873.147287 548.218541,873.147287 C552.078607,873.147287 559.033552,873.147287 559.033552,857.559452 C559.033552,841.974457 544.512082,649.991533 544.512082,622.043087 C544.512082,602.64565 569.53566,507.283439 569.95381,426.688053 C567.891506,379.822277 551.942068,359.393605 551.942068,359.393605 L536.86591,327.87419 C516.441983,317.18685 480.725711,302.451275 465.074952,320.061807" id="Fill-149" fill="#02517E"></path>
                    <path d="M443.794838,138.362475 C443.794838,138.362475 438.657261,141.455372 437.417746,148.85958 C436.18108,156.269468 439.429465,161.51518 439.429465,161.51518 C439.429465,161.51518 407.233413,232.333715 406.612231,244.679741 C405.993898,257.020087 446.860857,336.640171 452.434401,364.41092 C452.434401,364.41092 453.055584,370.27294 460.794718,371.201661 C468.533852,372.127542 531.073806,370.582514 545.933741,364.104187 C545.933741,364.104187 555.222981,359.781516 555.222981,352.684041 C555.222981,345.586567 540.055304,307.321554 538.815789,225.855388 C537.579123,144.386382 487.365935,124.034041 487.365935,124.034041 L443.794838,138.362475" id="Fill-150" fill="#E6711D"></path>
                    <path d="M437.273957,148.707069 C436.15567,155.985498 439.317525,161.115355 439.317525,161.115355 C439.317525,161.115355 437.001481,166.236686 433.60121,173.964155 C436.609797,175.100965 439.059241,176.1042 439.859639,176.627133 C442.485057,178.332349 457.965089,197.643916 460.195985,200.403523 C462.424043,203.157446 467.277518,211.828468 467.277518,211.828468 L459.668063,241.908472 C459.668063,241.908472 426.346541,254.785692 406.932639,247.169062 C407.957261,252.296077 411.445519,261.467295 416.083285,272.619405 C424.04185,273.651061 436.680754,275.864999 442.876741,280.005831 C448.607248,283.828356 443.336544,306.968132 438.298579,324.59722 C442.547499,334.819988 446.345131,344.465824 449.004608,352.466127 L506.636083,245.324587 C506.636083,245.324587 514.932404,265.863909 540.164801,265.414869 C539.211136,253.46415 538.538461,240.186204 538.314236,225.498613 C537.573442,176.359982 519.107529,149.448838 504.552779,135.815639 C479.385663,136.531829 454.488184,140.064468 437.273957,148.707069" id="Fill-151" fill="#B65A17"></path>
                    <path d="M482.332371,190.155906 C482.332371,190.155906 465.668601,194.463063 457.025709,218.481131 C448.385656,242.493531 414.438942,318.237155 410.428503,321.62054 C406.418065,325.009593 296.84391,326.208229 290.672039,327.438036 L263.879924,328.616837 C263.879924,328.616837 266.52988,340.934739 277.944861,341.546809 C279.262739,341.620484 280.822038,344.28412 284.98869,344.28412 C289.155343,344.28412 393.915267,353.1818 404.410005,354.411607 C414.899063,355.644247 431.565673,354.411607 447.610267,336.556741 C463.660542,318.696207 501.927282,248.500882 505.630973,237.412786 C509.331824,226.330358 514.580613,185.690064 482.332371,190.155906" id="Fill-152" fill="#EBA87F"></path>
                    <path d="M433.794677,118.946588 L425.91904,131.532705 C425.91904,131.532705 434.715903,129.756209 439.319209,137.169171 C443.928166,144.57929 443.928166,170.214834 443.928166,172.375053 C443.928166,174.538114 456.819682,176.388512 467.569206,174.845092 C478.315904,173.301673 488.13855,162.492052 488.754585,158.788413 C489.367794,155.07909 472.141427,105.379845 472.141427,105.379845 L433.794677,118.946588" id="Fill-153" fill="#E2896D"></path>
                    <path d="M453.245356,123.970542 C453.120139,123.998997 421.613842,133.064841 421.488625,133.093297 C400.309883,137.372967 396.968867,127.775009 396.513532,125.532735 C396.058198,123.290461 394.208402,111.803074 393.5937,111.086002 C392.978999,110.371775 387.956091,111.384782 387.37554,108.513647 C386.792142,105.645357 386.507558,88.5181387 388.795614,66.5762911 C391.083669,44.631598 409.624318,31.9177897 409.624318,31.9177897 C465.547923,-5.63461114 502.657678,105.38926 453.245356,123.970542" id="Fill-154" fill="#EBA87F"></path>
                    <path d="M453.230565,123.94772 C453.105222,123.976241 421.567282,133.063025 421.441939,133.091546 C411.650963,135.070902 405.671545,134.086928 402.022362,132.230212 C416.590606,132.275846 430.683117,120.756223 430.683117,120.756223 C433.842324,112.659117 437.924509,105.158099 445.9322,92.1953144 C453.945588,79.2296773 451.697965,65.1260533 451.697965,65.1260533 L473.034717,71.8712648 C473.034717,71.8712648 474.080189,73.0976669 475.718191,75.1198043 C478.450092,95.9401189 472.242778,116.788954 453.230565,123.94772" id="Fill-155" fill="#E2896D"></path>
                    <path d="M440.359483,83.4430587 C440.359483,83.4430587 439.276368,71.109216 439.742591,67.7186151 C440.205971,64.3280143 445.613015,60.3217143 448.390451,60.0124461 C451.173572,59.7031779 453.024249,68.7967979 453.177761,72.0341833 C453.331273,75.2715687 450.553837,90.6867441 448.697476,93.4616459 C446.846799,96.2365477 412.406028,163.901025 458.738318,187.331637 C505.070607,210.76225 510.014272,215.693517 513.72131,237.892731 C517.425506,260.089109 536.884612,263.78614 548.625461,257.314207 C560.360625,250.839436 591.557738,187.640905 545.84234,146.329484 C500.126943,105.018062 495.18612,102.552429 495.18612,59.3939097 C495.18612,16.2325536 447.000312,-17.6791299 411.789136,10.0698882 C411.789136,10.0698882 391.40327,-2.57038536 376.268093,8.21711635 C361.132917,19.0074554 361.002147,65.7012786 387.787202,83.0486708 C388.071484,78.0464705 388.503593,72.5136909 389.114799,66.6375951 C389.154599,66.2602312 389.200084,65.8913792 389.245569,65.5225272 C389.245569,65.5225272 404.528573,64.1747988 412.096161,55.3847724 C412.096161,55.3847724 417.659561,68.4875297 431.404598,70.028196 C431.404598,70.028196 435.108793,81.5136791 435.728528,82.285431 C436.34542,83.0543455 437.658803,84.2119732 440.359483,83.4430587" id="Fill-156" fill="#31364C"></path>
                    <path d="M366.01367,41.8901247 C367.091359,57.5597266 373.727654,74.4292275 387.575957,83.4185411 C387.862395,78.417544 388.290634,72.8860951 388.90038,67.0114127 C388.940084,66.6369761 388.98546,66.2653762 389.030837,65.896613 C389.030837,65.896613 404.277299,64.5463721 411.826794,55.7612966 C411.826794,55.7612966 417.376892,68.8609023 431.089065,70.401198 C416.506232,68.1772719 412.37131,48.2413627 412.37131,48.2413627 C387.629841,67.5475377 372.993124,53.3728453 366.01367,41.8901247 Z M449.248124,91.7384076 C448.933325,92.674499 448.627035,93.4006789 448.340596,93.8290116 C446.494345,96.603246 412.13592,164.251448 458.357431,187.676425 C504.578943,211.101402 509.510788,216.031483 513.208962,238.225358 C516.901465,260.416396 536.316882,264.112539 548.029659,257.642162 C558.037986,252.107876 582.229267,205.121764 560.539359,165.797417 C426.897423,186.487872 449.248124,91.7384076 449.248124,91.7384076 L449.248124,91.7384076 Z" id="Fill-157" fill="#101522"></path>
                    <path d="M290.949703,330.024888 C287.787288,329.285202 278.495918,323.081481 275.586155,320.306953 C271.285384,316.203258 266.399821,316.291113 259.36813,313.272857 C252.728193,310.424643 262.777521,323.430068 264.171368,325.314707 C264.171368,325.314707 257.060191,333.794165 251.396799,324.073396 C251.396799,324.073396 245.824248,329.001798 247.027897,332.028556 C247.340164,332.822088 252.640191,335.596617 253.060332,337.974379 C254.968001,348.772085 273.414478,353.439755 291.704822,343.055819 L290.949703,330.024888" id="Fill-158" fill="#EBA87F"></path>
                </g>
                <text id="SEPTEMBER-2019" font-family="RobotoCondensed-Bold, Roboto Condensed" font-size="40" font-style="condensed" font-weight="bold" letter-spacing="1" fill="#FFFFFF">
                    <tspan x="908.078125" y="265">SEPTEMBER 201</tspan>
                    <tspan x="1186.01953" y="265">9</tspan>
                </text>
            </g>
        </g>
    </g>
</svg>