<?xml version="1.0" encoding="UTF-8"?>
<svg width="864px" height="656px" viewBox="0 0 864 656" version="1.1" xmlns="http://www.w3.org/2000/svg" xmlns:xlink="http://www.w3.org/1999/xlink">
    <!-- Generator: Sketch 54.1 (76490) - https://sketchapp.com -->
    <title>schedule-illustration</title>
    <desc>Created with Sketch.</desc>
    <style>		
        .schedule-twenty-six {		
            animation: hideShowCalenderText 4s ease;		
        }		
        .schedule-twenty-seven {		
            animation: hideShowCalenderText 6s ease;		
        }		
        @keyframes hideShowCalenderText {		
            0% { opacity: 0; }		
            50% { opacity: 0; }		
            100% { opacity: 1; }		
        }		
    </style>
    <defs>
        <linearGradient x1="45.2245488%" y1="63.4532173%" x2="35.4120036%" y2="176.917935%" id="linearGradient-1">
            <stop stop-color="#FFF0CE" offset="0%"></stop>
            <stop stop-color="#FFDCA0" offset="100%"></stop>
        </linearGradient>
        <linearGradient x1="0%" y1="49.9972526%" x2="99.9995176%" y2="49.9972526%" id="linearGradient-2">
            <stop stop-color="#32C5FF" offset="0%"></stop>
            <stop stop-color="#FA6400" stop-opacity="0.29955201" offset="100%"></stop>
        </linearGradient>
    </defs>
    <g id="Page-1" stroke="none" stroke-width="1" fill="none" fill-rule="evenodd">
        <g id="Artboard" transform="translate(-2460.000000, -6822.000000)">
            <g id="schedule-illustration" transform="translate(2460.000000, 6822.000000)">
                <path d="M31.4935242,205.277167 C78.9332324,183.237996 112.818738,221.665268 161.952722,205.277167 C211.086705,188.889066 196.174161,122.585443 241.076953,77.7738583 C285.979746,32.9622733 329.962135,47.7922639 356.531075,68.1023762 C383.100015,88.4124885 448.797758,251.376961 390.829161,429.33223 C332.860565,607.2875 124.696982,548.621366 61.860474,494.13116 C-12.8637516,429.33223 -15.9461839,227.316338 31.4935242,205.277167 Z" id="Mask" fill-opacity="0.7" fill="url(#linearGradient-1)" fill-rule="nonzero"></path>
                <g id="Group" transform="translate(676.500001, 300.500000) scale(-1, 1) translate(-676.500001, -300.500000) translate(453.000001, 0.000000)" fill="#B5DEFF" fill-rule="nonzero">
                    <path d="M270.069053,289.676932 C207.495519,289.676932 156.769795,238.957264 156.769795,176.391202 C156.769795,113.82514 207.495519,63.1054733 270.069053,63.1054733 C332.642587,63.1054733 383.368311,113.82514 383.368311,176.391202 C383.368311,238.957264 332.642587,289.676932 270.069053,289.676932 Z M417.326479,138.386525 C413.741667,124.50696 408.239256,111.408999 401.136809,99.3613173 L417.625723,74.5820507 L394.754989,51.7201547 L371.89647,28.8582587 L347.114244,45.3329904 C335.059017,38.2313918 321.953384,32.7357437 308.078269,29.1513599 L302.209438,0 L237.54847,0 L231.679638,29.1513599 C217.804523,32.7357437 204.698891,38.2313918 192.655877,45.3329904 L167.867544,28.8582587 L122.144399,74.5820507 L138.621098,99.3613173 C131.518651,111.408999 126.022347,124.50696 122.431428,138.386525 L93.2765868,144.254656 L93.2765868,208.914009 L122.431428,214.776033 C126.022347,228.649492 131.518651,241.753559 138.621098,253.801241 L122.144399,278.580508 L167.867544,324.3043 L192.655877,307.823462 C204.698891,314.92506 217.804523,320.426815 231.679638,324.011198 L237.54847,353.162558 L302.209438,353.162558 L308.078269,324.011198 C321.953384,320.426815 335.059017,314.92506 347.114244,307.823462 L371.89647,324.3043 L394.754989,301.442404 L417.625723,278.580508 L401.136809,253.801241 C408.239256,241.753559 413.741667,228.649492 417.326479,214.776033 L446.481321,208.914009 L446.481321,144.254656 L417.326479,138.386525 L417.326479,138.386525 Z" id="Fill-343"></path>
                    <path d="M156.833719,520.544517 C114.21729,520.544517 79.6668621,486.007287 79.6668621,443.386875 C79.6668621,400.775535 114.21729,366.229233 156.833719,366.229233 C199.450147,366.229233 234.000575,400.775535 234.000575,443.386875 C234.000575,486.007287 199.450147,520.544517 156.833719,520.544517 Z M257.09034,417.55745 C254.649164,408.102425 250.910262,399.173686 246.064209,390.970862 L257.28999,374.084295 L226.1355,342.933525 L209.265066,354.167039 C201.061262,349.330639 192.122383,345.58311 182.675303,343.133151 L178.682301,323.279412 L134.623154,323.279412 L130.621077,343.133151 C121.164922,345.58311 112.235118,349.330639 104.031314,354.167039 L87.1518054,342.933525 L55.9973149,374.084295 L67.2230955,390.970862 C62.3861181,399.173686 58.6381412,408.102425 56.20604,417.55745 L36.3317801,421.549975 L36.3317801,465.603861 L56.20604,469.596386 C58.6381412,479.042338 62.3861181,487.971076 67.2230955,496.182975 L55.9973149,513.060467 L71.5700227,528.64039 L87.1518054,544.211238 L104.031314,532.986798 C112.235118,537.823198 121.164922,541.570727 130.621077,544.011612 L134.623154,563.874424 L178.682301,563.874424 L182.675303,544.011612 C192.122383,541.570727 201.061262,537.823198 209.265066,532.986798 L226.1355,544.211238 L241.717282,528.64039 L257.28999,513.060467 L246.064209,496.182975 C250.910262,487.971076 254.649164,479.042338 257.09034,469.596386 L276.955525,465.603861 L276.955525,421.549975 L257.09034,417.55745 L257.09034,417.55745 Z" id="Fill-344" transform="translate(156.643653, 443.576918) rotate(-22.000000) translate(-156.643653, -443.576918) "></path>
                </g>
                <g id="calendar" transform="translate(195.873154, 99.695917)">
                    <rect id="Rectangle" fill="#E4E4E4" fill-rule="nonzero" x="5.78924451" y="43.9557468" width="400.422745" height="405.262324"></rect>
                    <g id="tasks" transform="translate(0.000000, 51.630245)">
                        <polygon id="Fill-52" fill="#FFFFFF" fill-rule="nonzero" points="13.9906742 91.3466897 105.171275 91.3466897 105.171275 0.0539848976 13.9906742 0.0539848976"></polygon>
                        <polygon id="Fill-53" fill="#FFFFFF" fill-rule="nonzero" points="112.407831 91.3466897 203.588432 91.3466897 203.588432 0.0539848976 112.407831 0.0539848976"></polygon>
                        <polygon id="Fill-54" fill="#FFFFFF" fill-rule="nonzero" points="210.824987 188.918787 302.005588 188.918787 302.005588 98.1091123 210.824987 98.1091123"></polygon>
                        <polygon id="Fill-55" fill="#FFFFFF" fill-rule="nonzero" points="308.759707 189.401817 399.940308 189.401817 399.940308 98.1091123 308.759707 98.1091123"></polygon>
                        <polygon id="Fill-56" fill="#FFFFFF" fill-rule="nonzero" points="308.759707 91.3466897 399.940308 91.3466897 399.940308 0.0539848976 308.759707 0.0539848976"></polygon>
                        <polygon id="Fill-57" fill="#FFFFFF" fill-rule="nonzero" points="112.407831 287.939975 203.588432 287.939975 203.588432 196.64727 112.407831 196.64727"></polygon>
                        <polygon id="Fill-58" fill="#B5DEFF" fill-rule="nonzero" points="112.407831 385.995102 203.588432 385.995102 203.588432 294.702397 112.407831 294.702397"></polygon>
                        <polygon id="Fill-59" fill="#FFFFFF" fill-rule="nonzero" points="210.824987 385.995102 302.005588 385.995102 302.005588 294.702397 210.824987 294.702397"></polygon>
                        <polygon id="Fill-60" fill="#B5DEFF" fill-rule="nonzero" points="13.9906742 287.939975 105.171275 287.939975 105.171275 196.64727 13.9906742 196.64727"></polygon>
                        <g id="Fill-61" transform="translate(294.000000, 294.000000)">
                            <g id="path-2-link" fill="#000000" fill-rule="nonzero">
                                <path d="M105.940308,0.702397 C105.940308,0.702397 105.875906,42.960602 95.957966,78.783028 L74.818889,91.995102 L0.286596,91.995102 C14.447504,54.360366 14.530848,0.702397 14.530848,0.702397 L105.940308,0.702397" id="path-2"></path>
                            </g>
                            <g id="path-2-link" fill="#B5DEFF">
                                <path d="M105.940308,0.702397 C105.940308,0.702397 105.875906,42.960602 95.957966,78.783028 L74.818889,91.995102 L0.286596,91.995102 C14.447504,54.360366 14.530848,0.702397 14.530848,0.702397 L105.940308,0.702397" id="path-2"></path>
                            </g>
                        </g>
                        <polyline id="Fill-62" fill="#8EAFCA" fill-rule="nonzero" points="369.064337 385.995102 369.064337 372.470257 390.291567 372.470257 369.064337 385.995102"></polyline>
                        <g id="Fill-63" transform="translate(196.000000, 196.000000)">
                            <g id="path-4-link" fill="#000000" fill-rule="nonzero">
                                <path d="M96.02364,78.727901 L74.881609,91.939975 L0.351876,91.939975 C14.512605,54.305239 14.595946,0.64727 14.595946,0.64727 L106.005588,0.64727 C106.005588,0.64727 105.941189,42.905474 96.02364,78.727901 Z" id="path-4"></path>
                            </g>
                            <g id="path-4-link" fill="#ADA491">
                                <path d="M96.02364,78.727901 L74.881609,91.939975 L0.351876,91.939975 C14.512605,54.305239 14.595946,0.64727 14.595946,0.64727 L106.005588,0.64727 C106.005588,0.64727 105.941189,42.905474 96.02364,78.727901 Z" id="path-4"></path>
                            </g>
                        </g>
                        <polyline id="Fill-64" fill="#8E8676" fill-rule="nonzero" points="270.647181 287.939975 270.647181 274.415129 291.874411 274.415129 270.647181 287.939975"></polyline>
                        <g id="Fill-65" transform="translate(196.000000, 0.000000)">
                            <g id="path-6-link" fill="#000000" fill-rule="nonzero">
                                <path d="M106.005588,0.0539848976 C106.005588,0.0539848976 105.941189,42.3112577 96.02364,78.132779 L74.881609,91.3466897 L0.351876,91.3466897 C14.512605,53.710975 14.595946,0.0539848976 14.595946,0.0539848976 L106.005588,0.0539848976" id="path-6"></path>
                            </g>
                            <g id="path-6-link" fill="#B5DEFF">
                                <path d="M106.005588,0.0539848976 C106.005588,0.0539848976 105.941189,42.3112577 96.02364,78.132779 L74.881609,91.3466897 L0.351876,91.3466897 C14.512605,53.710975 14.595946,0.0539848976 14.595946,0.0539848976 L106.005588,0.0539848976" id="path-6"></path>
                            </g>
                        </g>
                        <polyline id="Fill-66" fill="#8EAFCA" fill-rule="nonzero" points="270.647181 91.3466897 270.647181 77.8218445 291.874411 77.8218445 270.647181 91.3466897"></polyline>
                        <g id="Fill-67" transform="translate(0.000000, 294.000000)">
                            <g id="path-8-link" fill="#000000" fill-rule="nonzero">
                                <path d="M105.653712,0.702397 C105.653712,0.702397 105.58969,42.960602 95.671964,78.783028 L74.5325843,91.995102 L-6.82121026e-13,91.995102 C14.1606038,54.360366 14.2458402,0.702397 14.2458402,0.702397 L105.653712,0.702397" id="path-8"></path>
                            </g>
                            <g id="path-8-link" fill="#FFFFFF">
                                <path d="M105.653712,0.702397 C105.653712,0.702397 105.58969,42.960602 95.671964,78.783028 L74.5325843,91.995102 L-6.82121026e-13,91.995102 C14.1606038,54.360366 14.2458402,0.702397 14.2458402,0.702397 L105.653712,0.702397" id="path-8"></path>
                            </g>
                        </g>
                        <polyline id="Fill-68" fill="#C9C9C9" fill-rule="nonzero" points="74.2953045 386.478132 74.2953045 372.953287 95.5225344 372.953287 74.2953045 386.478132"></polyline>
                        <polygon id="Fill-51" fill="#FFFFFF" fill-rule="nonzero" points="13.9906742 189.884847 105.171275 189.884847 105.171275 98.5921425 13.9906742 98.5921425"></polygon>
                        <g id="Fill-69" transform="translate(97.000000, 98.000000)">
                            <g id="path-10-link" fill="#000000" fill-rule="nonzero">
                                <path d="M96.606305,78.669154 L75.467304,91.884847 L0.9347196,91.884847 C15.094945,54.25058 15.18056,0.5921425 15.18056,0.5921425 L106.588432,0.5921425 C106.588432,0.5921425 106.52441,42.849065 96.606305,78.669154 Z" id="path-10"></path>
                            </g>
                            <g id="path-10-link" fill="#4BA2F4">
                                <path d="M96.606305,78.669154 L75.467304,91.884847 L0.9347196,91.884847 C15.094945,54.25058 15.18056,0.5921425 15.18056,0.5921425 L106.588432,0.5921425 C106.588432,0.5921425 106.52441,42.849065 96.606305,78.669154 Z" id="path-10"></path>
                            </g>
                        </g>
                        <polyline id="Fill-70" fill="#375EAB" fill-rule="nonzero" points="172.712461 189.884847 172.712461 176.360002 193.939691 176.360002 172.712461 189.884847"></polyline>
                        <g id="Fill-73" transform="translate(294.000000, 196.000000)">
                            <g id="path-12-link" fill="#000000" fill-rule="nonzero">
                                <path d="M105.940308,0.64727 C105.940308,0.64727 105.875906,42.905474 95.957966,78.727901 L74.818889,91.939975 L0.286596,91.939975 C14.447504,54.305239 14.530848,0.64727 14.530848,0.64727 L105.940308,0.64727" id="path-12"></path>
                            </g>
                            <g id="path-12-link" fill="#FFFFFF">
                                <path d="M105.940308,0.64727 C105.940308,0.64727 105.875906,42.905474 95.957966,78.727901 L74.818889,91.939975 L0.286596,91.939975 C14.447504,54.305239 14.530848,0.64727 14.530848,0.64727 L105.940308,0.64727" id="path-12"></path>
                            </g>
                        </g>
                        <polyline id="Fill-74" fill="#C9C9C9" fill-rule="nonzero" points="369.064337 287.939975 369.064337 274.415129 390.291567 274.415129 369.064337 287.939975"></polyline>
                    </g>
                    <g id="header" transform="translate(5.306807, 0.000000)" fill-rule="nonzero">
                        <polygon id="Fill-35" fill="#FFFFFF" points="400.69159 43.8356805 400.69159 0 0.482437042 0 5.68434189e-14 43.8356805"></polygon>
                        <polygon id="Fill-35" fill="url(#linearGradient-2)" points="400.69159 43.8356805 400.69159 0 0.482437042 0 0 43.8356805"></polygon>
                    </g>
                    <g id="26" class = "schedule-twenty-six" transform="translate(220.000000, 147.000000)" fill="#4BA2F4" font-family="RobotoCondensed-Bold, Roboto Condensed" font-size="72" font-style="condensed" font-weight="bold">
                        <text id="2">
                            <tspan x="0.835781" y="75">2</tspan>
                        </text>
                        <text id="6">
                            <tspan x="37.34" y="75">6</tspan>
                        </text>
                    </g>
                    <g id="27" class = "schedule-twenty-seven" transform="translate(121.000000, 247.000000)" fill="#4BA2F4" font-family="RobotoCondensed-Bold, Roboto Condensed" font-size="72" font-style="condensed" font-weight="bold">
                        <text id="2">
                            <tspan x="0.285781" y="75">2</tspan>
                        </text>
                        <text id="7">
                            <tspan x="38.89" y="75">7</tspan>
                        </text>
                    </g>
                </g>
                <g id="girl-rest" transform="translate(638.243267, 578.434405) scale(-1, 1) translate(-638.243267, -578.434405) translate(456.243267, 500.434405)">
                    <path d="M49.2591016,80.6703391 L47.8858981,78.8233005 C47.8858981,78.8233005 39.5024981,71.2704331 38.5814299,70.4398289 C38.2902716,70.1779773 37.9137255,69.4642208 37.5133828,68.5787122 C36.6399078,66.6486132 35.6586483,63.9104348 35.2443076,63.3290118 C34.640994,62.4815139 30.4779898,60.7062733 29.2657634,60.3726238 C28.0521371,60.0389743 4.10856431,66.728858 3.03071859,67.4299443 C1.95287287,68.1296228 3.83140398,70.431382 6.17606837,71.0226596 C8.51793316,71.6167528 23.707159,73.904434 24.9949747,74.1550231 C26.2841901,74.4027966 29.7081,75.8176394 32.139552,78.0081821 C34.5696042,80.1987248 43.0355924,87.8262059 43.0355924,87.8262059 L49.2591016,80.6703391" id="Fill-26" fill="#E2896D" fill-rule="nonzero"></path>
                    <path d="M38.3837155,66.8235838 C38.3837155,66.8235838 38.3541868,69.223489 34.8149607,70.3771277 C31.2757347,71.5293629 29.0104613,67.4593481 25.9479129,69.2641892 C22.8853645,71.0690302 22.0459056,73.5994566 22.0459056,73.5994566 C22.0459056,73.5994566 21.5340747,74.8976509 19.9212451,75.046417 C18.3084154,75.195183 5.10486647,72.0233785 4.1965073,71.5125214 C3.286742,71.0030679 0.889292487,68.8964844 1.55439138,67.1421677 C2.21808415,65.387851 33.4819507,58.1249799 33.4819507,58.1249799 C33.4819507,58.1249799 37.4711379,60.7817171 38.3837155,66.8235838" id="Fill-27" fill="#FFCF1D" fill-rule="nonzero"></path>
                    <path d="M33.3495361,59.69984 C34.2032474,59.4758176 34.7165992,58.5953247 34.4929747,57.7346818 C34.2693502,56.8712031 33.3959488,56.3565189 32.5422375,56.5805412 L1.19542358,64.8523544 C0.340305895,65.0777946 -0.170233116,65.9582876 0.051984966,66.8203484 C0.275609491,67.6809913 1.14901094,68.1970934 2.00272218,67.973071 L33.3495361,59.69984" id="Fill-28" fill="#FFFFFE" fill-rule="nonzero"></path>
                    <path d="M290.288815,95.1716704 L295.001162,98.9860072 C295.001162,98.9860072 305.212659,126.297277 305.660444,127.635665 C306.109643,128.974053 305.435845,137.898984 302.968079,141.020954 C300.4989,144.145732 293.991172,143.475836 293.317374,140.57576 C292.643576,137.67428 278.281937,105.100743 278.281937,105.100743 L290.288815,95.1716704" id="Fill-29" fill="#FFFFFE" fill-rule="nonzero"></path>
                    <path d="M290.288815,95.1716704 L295.001162,98.9860072 C295.001162,98.9860072 305.212659,126.297277 305.660444,127.635665 C306.109643,128.974053 305.435845,137.898984 302.968079,141.020954 C300.4989,144.145732 293.991172,143.475836 293.317374,140.57576 C292.643576,137.67428 278.281937,105.100743 278.281937,105.100743 L290.288815,95.1716704 Z" id="Stroke-30" stroke="#181A18" stroke-width="0.216" stroke-linecap="round" stroke-linejoin="round"></path>
                    <path d="M297.884352,50.3103703 C297.884352,50.3103703 296.756807,64.3231209 300.548054,73.9373509 C300.548054,73.9373509 301.879202,76.2879943 299.933029,78.0260968 C297.986856,79.7641994 286.102001,87.0277858 267.147173,87.0277858 C248.195154,87.0277858 232.11044,69.4365064 231.905432,67.3914325 C231.700423,65.344957 239.816499,52.0302507 240.98336,39.9210027 L297.884352,50.3103703" id="Fill-31" fill="#0D0E10" fill-rule="nonzero"></path>
                    <path d="M201.03471,119.662614 C201.03471,119.662614 194.460537,120.774282 189.893113,117.206276 C185.325689,113.63827 172.069362,99.4785368 144.889194,110.849274 C141.670822,112.196751 138.637559,113.486679 135.782394,114.717655 C158.878945,105.08039 171.801515,119.930705 179.02357,124.42089 C186.376042,128.993889 189.057318,126.659667 189.057318,126.659667 L196.735133,129.663417 C196.735133,129.663417 198.043517,129.480946 200.141419,129.108986 L201.03471,119.662614" id="Fill-32" fill="#00446B" fill-rule="nonzero"></path>
                    <path d="M269.965466,76.8697539 L273.947282,73.6143289 C273.947282,73.6143289 282.112952,74.7490931 289.579911,87.1317859 C289.579911,87.1317859 294.651886,95.8896936 295.15277,96.5034213 C295.655057,97.1171489 295.544217,98.3446043 295.544217,98.3446043 C295.544217,98.3446043 288.242817,108.272386 280.218854,107.938137 C272.19489,107.603887 269.965466,76.8697539 269.965466,76.8697539" id="Fill-33" fill="#FFCF1D" fill-rule="nonzero"></path>
                    <path d="M92.4716994,45.8781013 L92.920577,43.6489962 C92.920577,43.6489962 92.9177627,32.4978555 92.9177627,31.2710054 C92.9177627,30.8835791 93.1935621,30.1353971 93.5791184,29.2594767 C94.4205879,27.3462082 95.7826992,24.8223221 95.9360774,24.1345 C96.1598126,23.1308412 94.7062373,18.8930147 94.1476028,17.7770584 C93.5889683,16.6625058 72.798479,3.39455752 71.5686389,3.06047249 C70.3402059,2.72638746 69.8927355,5.62506639 71.0100044,7.74327778 C72.1272734,9.86148916 80.5110118,22.5721612 81.1822174,23.6881175 C81.8520159,24.8026701 83.0818561,28.260029 83.0818561,31.4941967 C83.0818561,34.7255569 83.0818561,45.9889951 83.0818561,45.9889951 L92.4716994,45.8781013" id="Fill-34" fill="#E2896D" fill-rule="nonzero"></path>
                    <path d="M95.4749147,28.9240373 C95.4749147,28.9240373 93.701432,30.4841269 90.5423724,28.6448486 C87.3833129,26.8083762 88.8805173,22.4606086 85.5554118,21.4013751 C82.2289109,20.3421417 79.8289186,21.3943604 79.8289186,21.3943604 C79.8289186,21.3943604 78.5438065,21.875575 77.3800893,20.7896853 C76.2163721,19.7023927 69.8982529,7.9175434 69.6763932,6.91442826 C69.4559288,5.91131311 69.4280219,2.76167184 71.1456908,2.09386371 C72.8633597,1.42605558 98.6339743,19.591559 98.6339743,19.591559 C98.6339743,19.591559 99.2981582,24.2718277 95.4749147,28.9240373" id="Fill-35" fill="#FFCF1D" fill-rule="nonzero"></path>
                    <path d="M97.3420326,20.6558826 C98.0701486,21.1378674 99.0517674,20.9385717 99.5348308,20.2064071 C100.016486,19.4770694 99.8179088,18.4904848 99.0883844,18.0070866 L72.3466679,0.264110553 C71.6171435,-0.220701107 70.6355247,-0.0185784616 70.1538696,0.710759197 C69.6708062,1.44292375 69.8707916,2.42809496 70.5989077,2.91149318 L97.3420326,20.6558826" id="Fill-36" fill="#FFFFFE" fill-rule="nonzero"></path>
                    <path d="M103.316168,130.538512 C91.0933979,120.204565 50.6968705,79.2241534 45.325089,74.4371356 C45.325089,74.4371356 43.6997879,72.4158567 41.9396304,74.1716584 C40.1794729,75.9274601 34.0196241,82.0727661 34.0196241,82.0727661 C34.0196241,82.0727661 32.5460365,84.4199219 34.2415753,86.5985206 C35.9371141,88.7771194 73.4721565,134.419536 88.8921475,152.338546 L103.316168,130.538512" id="Fill-37" fill="#00446B" fill-rule="nonzero"></path>
                    <path d="M135.916579,111.275864 C114.621874,120.442747 105.066865,129.851196 101.287571,130.900324 C97.5082773,131.949453 96.380109,58.0961453 95.7099517,46.7172446 C95.7099517,46.7172446 96.0443279,43.5937349 93.0321325,43.5937349 C90.0185321,43.5937349 82.261848,43.5937349 82.261848,43.5937349 C82.261848,43.5937349 79.0824645,43.5937349 78.5794953,47.6638478 C76.484727,64.6535494 65.5725434,155.212858 87.7312868,155.212858 C98.8907401,155.212858 197.600552,155.212858 197.600552,155.212858 L200.394981,125.675749 C198.291783,126.04793 196.982377,126.230509 196.982377,126.230509 L189.288916,123.226378 C189.288916,123.226378 186.604072,125.560583 179.237962,120.986271 C172.001106,116.492012 159.054566,101.63287 135.916579,111.275864" id="Fill-38" fill="#285173" fill-rule="nonzero"></path>
                    <path d="M279.069408,76.4157517 C279.069408,76.4157517 282.030478,79.8620903 283.483557,86.3267815 C284.938044,92.7928759 281.917836,113.525633 281.917836,116.311049 C281.917836,119.097869 276.550456,126.119643 274.984736,128.01541 C273.419015,129.909774 245.344463,148.969878 239.529332,151.645842 C233.714201,154.320403 231.029103,155.212858 227.449911,155.212858 C223.870719,155.212858 192.833688,155.212858 192.833688,155.212858 C192.833688,155.212858 188.080206,154.710501 188.080206,151.311873 C188.080206,147.911841 188.080206,130.076758 188.080206,125.730948 C188.080206,121.382331 195.683525,122.274787 207.98823,110.905798 C220.290119,99.5368104 227.462583,72.3576039 253.626449,72.3576039 C253.626449,72.3576039 273.480968,70.2752072 279.069408,76.4157517" id="Fill-39" fill="#FFDF69" fill-rule="nonzero"></path>
                    <path d="M273.164109,129.324177 C266.924763,134.132256 244.492595,149.28065 239.370576,151.645393 C233.573389,154.32029 230.896576,155.212858 227.328428,155.212858 C223.760281,155.212858 192.819021,155.212858 192.819021,155.212858 C192.819021,155.212858 188.080206,154.710438 188.080206,151.311382 L188.080206,145.410048 C196.357691,145.243043 201.593408,142.137299 201.593408,142.137299 L210.575539,149.269422 L215.06871,120.870043 L218.547023,97.0878785 L232.771889,106.604393 C232.771889,106.604393 233.433021,109.378932 234.621936,115.719533 C235.810851,122.05873 242.945743,129.324177 251.400091,129.324177 L273.164109,129.324177" id="Fill-40" fill="#FFCF1D" fill-rule="nonzero"></path>
                    <path d="M256.85103,68.2568415 C256.85103,71.6922021 256.85103,75.4905021 256.85103,77.9138202 C256.85103,83.2727594 260.588689,87.0277858 265.641712,87.0277858 C265.882533,87.0277858 266.123354,87.0166185 266.366992,86.9970756 C266.609222,87.0166185 266.85286,87.0277858 267.092273,87.0277858 C272.145296,87.0277858 275.882955,83.2727594 275.882955,77.9138202 C275.882955,75.4905021 275.882955,71.6922021 275.882955,68.2568415 C274.200023,66.5203163 270.263791,64.1486472 266.366992,63.0751842 C262.470194,64.1486472 258.533962,66.5203163 256.85103,68.2568415" id="Fill-41" fill="#EBA87F" fill-rule="nonzero"></path>
                    <path d="M289.35545,53.0162615 C285.869348,52.9498415 282.987616,55.7196992 282.921093,59.2018061 C282.855985,62.6853262 285.628732,65.5625865 289.11625,65.6290066 C292.605183,65.6940135 295.486914,62.9255689 295.553438,59.4434621 C295.619961,55.959942 292.845799,53.0826816 289.35545,53.0162615" id="Fill-42" fill="#EBA87F" fill-rule="nonzero"></path>
                    <path d="M245.381148,52.3779821 C245.225456,52.3990003 245.07118,52.4242221 244.91832,52.4564499 L244.914074,52.4578512 L244.914074,52.4564499 C242.096058,53.0421563 239.956008,55.4886715 239.899393,58.4592398 C239.83287,61.9118248 242.608425,64.7646913 246.095913,64.8305483 C249.583402,64.8964052 252.466525,62.1500308 252.531632,58.6960445 C252.571263,56.6895097 251.649852,54.8861506 250.187768,53.7147378 C250.347706,55.5615345 250.051892,57.8469104 247.671228,58.0753079 L247.740581,54.4671884 C247.768889,53.0085273 246.393142,52.3387482 245.381148,52.3779821" id="Fill-43" fill="#EBA87F" fill-rule="nonzero"></path>
                    <path d="M270.000183,21.0821558 L270.000183,21.0821558 C258.183669,20.8589002 248.3347,30.3325185 248.109838,42.135577 L247.738815,61.6416545 C247.513952,73.444713 256.99752,83.2862115 268.812629,83.5108712 C280.626332,83.7341268 290.476706,74.2605085 290.701569,62.4560459 L291.072592,42.9513725 C291.297454,31.1469099 281.813886,21.3068155 270.000183,21.0821558" id="Fill-44" fill="#EBA87F" fill-rule="nonzero"></path>
                    <path d="M269.967605,21.0821559 L269.967605,21.0821559 C258.16838,20.8588952 248.333822,30.3327321 248.109289,42.1360628 L247.738809,61.6425905 C247.514276,73.4473254 256.983967,83.2876469 268.781788,83.5109076 C269.221031,83.5193325 269.656065,83.5137159 270.091098,83.4954619 C256.285107,82.6698185 254.229224,69.6617223 253.820855,61.2634685 C253.411081,52.8624064 257.660374,44.2043838 260.16813,40.9776346 C262.677289,37.7494812 268.463232,39.6970448 271.380761,43.7438208 C274.299694,47.7905969 280.499619,51.3403019 280.609079,51.413318 C280.719943,51.486334 283.777805,51.6028789 283.777805,51.6028789 L286.278545,42.6415588 C286.278545,42.6415588 280.609079,29.8862106 276.79061,22.3402792 C274.653334,21.5693978 272.357481,21.1270889 269.967605,21.0821559" id="Fill-45" fill="#E2896D" fill-rule="nonzero"></path>
                    <path d="M247.574965,51.0988834 L249.781785,51.2893542 C249.781785,51.2893542 251.870968,57.7284027 247.609214,58.1249799 L247.682179,54.4648143 C247.686646,54.2132224 247.64793,53.9829517 247.574965,53.7754239 L247.574965,51.0988834" id="Fill-46" fill="#0D0E10" fill-rule="nonzero"></path>
                    <path d="M268.210636,67.8301525 C268.088858,70.9022876 270.496097,73.4889044 273.584442,73.6099321 C276.677035,73.7309599 279.279684,71.3385505 279.401462,68.2678227 L279.39155,68.2678227 C279.412791,67.7400853 278.995064,67.2897494 278.462639,67.2700472 L269.224508,66.9083712 C268.692084,66.8872617 268.241789,67.3024151 268.219132,67.8301525 L268.210636,67.8301525" id="Fill-47" fill="#FFFFFE" fill-rule="nonzero"></path>
                    <path d="M265.80723,27.1265402 L264.215177,30.3991044 C264.215177,30.3991044 259.63838,28.4819155 258.26124,34.7306872 C256.884101,40.9780544 254.08599,57.8282486 240.222691,52.6946769 C240.222691,52.6946769 239.81266,31.9426872 246.730877,26.0099357 C253.650509,20.0743751 265.80723,27.1265402 265.80723,27.1265402" id="Fill-48" fill="#0D0E10" fill-rule="nonzero"></path>
                    <path d="M256.85103,39.9210027 C254.913013,47.1073058 250.833496,56.1507904 240.222822,52.2232626 C240.222822,52.2232626 240.189142,50.5430219 240.30141,48.0073352 C251.761106,53.1010003 256.813139,40.0157426 256.85103,39.9210027" id="Fill-49" fill="#1C120F" fill-rule="nonzero"></path>
                    <path d="M256.85103,39.9210027 C254.913013,47.1073058 250.833496,56.1507904 240.222822,52.2232626 C240.222822,52.2232626 240.189142,50.5430219 240.30141,48.0073352 C251.761106,53.1010003 256.813139,40.0157426 256.85103,39.9210027" id="Fill-50" fill="#0D0E10" fill-rule="nonzero"></path>
                    <path d="M265.305769,30.9405568 C271.839968,34.8028309 275.467116,44.4922232 281.421589,50.4682145 C276.696752,47.4963702 273.499136,42.5695129 270.625772,38.1398357 C268.83185,35.3716385 267.157242,32.7888305 265.305769,30.9405568 Z M256.870966,29.4771061 L256.99028,29.4588481 C257.13065,29.5712051 257.320149,29.616148 257.50684,29.5641828 C262.732796,28.0993276 265.916376,33.0065224 269.655819,38.7704397 C273.431758,44.5933445 277.749524,51.2462872 285.31965,53.5341579 C285.956927,53.9035317 286.619471,54.2307717 287.3143,54.5018331 C300.01072,59.4595885 310.663361,43.200117 301.622162,28.2088757 C291.925438,12.1305799 263.977873,2.82179721 255.401298,22.3129388 C255.401298,22.3129388 253.664927,26.5193064 256.870966,29.4771061 L256.870966,29.4771061 Z" id="Fill-51" fill="#101522" fill-rule="nonzero"></path>
                    <path d="M265.292001,31.0570832 C271.81753,34.9261688 275.439864,44.6326493 281.386435,50.6191799 C276.667868,47.6420944 273.474495,42.7065482 270.604945,38.2690588 C268.813404,35.4959796 267.141018,32.9086165 265.292001,31.0570832 Z M256.868393,29.5910515 L256.987548,29.5727613 C257.127732,29.6853165 257.316979,29.7303386 257.503423,29.6782818 C262.722443,28.2108432 265.901798,33.1266923 269.636279,38.9007749 C273.407207,44.733949 277.719242,51.3986248 285.279323,53.6905304 C285.915754,54.0605557 286.577419,54.3883728 287.271326,54.6599122 C296.083242,58.1111366 303.905465,51.2987321 304.830674,41.7821885 C304.729742,42.2352232 302.939603,49.8706877 296.489773,50.7683156 C289.840884,51.6926753 280.636455,43.7884852 276.136574,35.6774749 C271.635291,27.5692784 265.549939,25.084622 261.687891,25.1465274 C257.834255,25.2070258 255.432917,22.6421738 257.989858,18.0442932 C257.002969,19.3035047 256.131029,20.7512462 255.400675,22.4142495 C255.400675,22.4142495 253.666608,26.6280354 256.868393,29.5910515 L256.868393,29.5910515 Z" id="Fill-52" fill="#0D0E10" fill-rule="nonzero"></path>
                    <path d="M217.731173,104.433343 L210.042444,109.799032 C210.042444,109.799032 198.888313,134.781535 197.661598,137.671506 C196.436285,140.564275 194.540069,155.212858 205.689989,155.212858 C216.838505,155.212858 283.399766,155.212858 283.399766,155.212858 C283.399766,155.212858 281.392668,146.232257 272.917943,146.232257 C264.444621,146.232257 227.20664,146.232257 223.527896,146.232257 C219.847749,146.232257 218.288388,146.677298 217.506602,143.899288 C216.72622,141.118478 232.892481,117.10583 232.892481,117.10583 L217.731173,104.433343" id="Fill-53" fill="#EBA87F" fill-rule="nonzero"></path>
                    <path d="M217.809767,104.433343 L210.092282,109.800284 C210.092282,109.800284 198.896436,134.782098 197.665132,137.671989 C196.435237,140.564679 194.531929,155.212858 205.723549,155.212858 L262.928451,155.212858 C262.132471,152.422329 261.208289,150.454684 261.208289,150.454684 C261.208289,150.454684 207.55219,151.231386 202.863657,149.420481 C198.175123,147.609576 214.06373,116.302189 214.06373,116.302189 C214.06373,116.302189 223.464747,118.698069 228.816832,123.487032 C231.20759,119.800846 233.027778,117.10688 233.027778,117.10688 L217.809767,104.433343" id="Fill-54" fill="#E2896D" fill-rule="nonzero"></path>
                    <path d="M245.431116,73.1352769 C245.431116,73.1352769 234.509981,73.7778397 222.786275,87.0691872 C222.786275,87.0691872 215.416968,96.7863673 210.281082,105.72038 C210.281082,105.72038 209.555818,107.619947 209.946561,109.629186 C209.946561,109.629186 223.822166,108.311722 229.850577,121.490586 C229.850577,121.490586 231.301106,121.825225 231.860516,121.603069 C232.41852,121.379508 247.906293,102.313532 249.917637,99.6336093 C251.92617,96.9536867 260.421324,79.3246889 245.431116,73.1352769" id="Fill-55" fill="#FFCF1D" fill-rule="nonzero"></path>
                    <path d="M275.913709,155.212858 L242.106519,155.212858 C240.365442,155.212858 238.938629,153.774748 238.938629,152.018471 C238.938629,150.262194 240.365442,148.825498 242.106519,148.825498 L275.913709,148.825498 C277.656188,148.825498 279.081598,150.262194 279.081598,152.018471 C279.081598,153.774748 277.656188,155.212858 275.913709,155.212858" id="Fill-56" fill="#101522" fill-rule="nonzero"></path>
                    <path d="M343.610405,155.212858 L269.273031,155.212858 C267.149427,155.212858 265.863163,153.479332 266.414821,151.361201 L278.939718,103.3362 C279.491376,101.216665 281.681122,99.4831387 283.804726,99.4831387 L358.1421,99.4831387 C360.265703,99.4831387 361.550561,101.216665 360.998902,103.3362 L348.475413,151.361201 C347.922347,153.479332 345.734008,155.212858 343.610405,155.212858" id="Fill-57" fill="#101522" fill-rule="nonzero"></path>
                    <path d="M345.727239,155.212858 L273.743166,155.212858 C271.624295,155.212858 270.3423,153.479332 270.892729,151.361201 L283.388316,103.3362 C283.940149,101.216665 286.123612,99.4831387 288.243888,99.4831387 L360.226557,99.4831387 C362.345428,99.4831387 363.628827,101.216665 363.078398,103.3362 L350.582811,151.361201 C350.030978,153.479332 347.846111,155.212858 345.727239,155.212858" id="Fill-58" fill="#0D0E10" fill-rule="nonzero"></path>
                </g>
                <g id="girl-search" transform="translate(195.947437, 418.516507) scale(-1, 1) translate(-195.947437, -418.516507) translate(56.447437, 181.016507)" fill-rule="nonzero">
                    <path d="M225.453042,59.959186 C225.453042,59.959186 218.182292,64.2064759 217.308858,76.6898392 C216.435424,89.1745922 210.531064,129.436288 209.091078,131.566882 C207.653869,133.698866 157.902833,147.276017 155.161722,148.675566 L124.727608,158.855998 C124.727608,158.855998 132.938445,163.881587 138.392896,162.657155 C143.848735,161.431334 141.896353,160.573815 143.857067,160.020667 C145.817781,159.467518 205.516802,148.657498 210.617158,147.845844 C215.718902,147.034189 223.396514,144.24065 228.57602,133.679408 C233.751361,123.120946 242.428771,84.9022855 242.69816,79.177617 C242.96755,73.4529484 240.033422,53.5715733 225.453042,59.959186" id="Fill-136" fill="#E2896D"></path>
                    <path d="M116.746452,144.988702 L116.744071,144.988702 C115.217738,146.57384 114.517672,148.827054 115.763027,150.653784 L176.447289,239.60395 C177.692644,241.43068 179.754742,240.619622 181.91923,240.619622 C184.081338,240.619622 184.148011,236.78127 182.900275,234.95454 L122.218394,146.004374 C120.973039,144.177644 118.275167,143.406029 116.746452,144.988702" id="Fill-137" stroke="#ECF3B1" fill="#FFCF1D"></path>
                    <path d="M102.474979,136.782258 L110.432987,148.297906 C112.978441,151.982411 117.579945,153.230591 120.659167,151.073501 C123.739776,148.916411 124.17511,144.137306 121.62827,140.451405 L113.671647,128.935756 L102.474979,136.782258" id="Fill-138" stroke="#FFFFFF" fill="#FFCF1D"></path>
                    <path d="M103.103679,131.975185 C135.598526,131.975185 97.5891046,78.4970062 97.5891046,51.5909552 C97.5891046,24.6849042 45.6264814,2.87324021 29.4659189,7.08067923 C13.3053563,11.2881182 8.33805132,32.4360354 9.89281131,51.5909552 C11.4475713,70.7458749 70.6088316,131.975185 103.103679,131.975185 Z" id="Oval" fill-opacity="0.4" fill="#285173"></path>
                    <path d="M27.7457154,6.24949854 C43.8917119,-4.99018166 75.6968703,12.800992 98.7843869,45.9876592 C121.873966,79.1743265 127.49732,115.190001 111.351323,126.429681 L103.153522,132.135155 L101.486732,129.737411 C101.113355,129.762173 100.737914,129.776617 100.358348,129.786935 C103.328865,124.046382 106.856354,116.277446 107.974423,109.919918 C110.024905,98.2881796 100.622394,68.3328945 69.1576076,34.8841675 C44.2980951,8.45946687 26.42136,10.5683255 20.0099946,12.6214707 L19.5479142,11.9549723 L27.7457154,6.24949854" id="Fill-139" fill="#FFDF69"></path>
                    <path d="M11.6556464,11.3229416 C-7.32083848,24.4865306 -2.59635952,63.9628707 22.2107733,99.4965231 C47.0179062,135.030176 82.5083576,153.16489 101.48691,140.001301 L111.119885,133.317487 L109.327271,130.751545 C109.519558,130.3682 109.701507,129.976611 109.877254,129.580899 C102.51451,130.757728 92.7657493,131.829447 85.568414,130.852534 C72.401901,129.057406 44.958571,109.010086 23.5753931,64.5791088 C6.68098713,29.4782658 16.7936465,11.4012595 21.7848466,5.35429373 L21.2886212,4.63912771 L11.6556464,11.3229416" id="Fill-140" fill="#FFDF69"></path>
                    <path d="M28.3136167,14.3709324 C42.9266783,4.24535315 71.852675,20.469363 92.9174241,50.6111495 C113.982173,80.7508751 119.210586,113.392627 104.595454,123.522328 C89.9803229,133.649968 61.056396,117.423897 39.991647,87.2841717 C18.9268979,57.1423852 13.6984852,24.4985727 28.3136167,14.3709324 Z M21.4288099,4.60962436 C2.43966078,17.7725925 7.16729271,57.2470708 31.99305,92.7811083 C56.8167384,128.311024 92.3329439,146.446944 111.320024,133.281915 C130.309173,120.121008 125.581541,80.6465292 100.757853,45.1145526 C75.9362336,9.58051512 40.4179591,-8.54922203 21.4288099,4.60962436 L21.4288099,4.60962436 Z" id="Fill-141" fill="#FFCF1D"></path>
                    <path d="M231.593861,443.436621 L232.148573,447.927942 L230.129877,473.420537 C230.129877,473.420537 229.991199,474.630756 229.139114,474.630756 C228.2856,474.630756 227.795223,474.630756 227.795223,474.630756 C227.795223,474.630756 227.098973,474.586191 227.030349,472.870437 C226.960295,471.154683 227.699435,444.918409 227.699435,444.918409 L231.593861,443.436621" id="Fill-142" fill="#285173"></path>
                    <path d="M200.831231,466.416852 C200.831231,466.416852 199.926242,466.416852 199.423317,466.416852 C198.91901,466.416852 196.168121,468.335845 194.275244,470.624143 C194.275244,470.624143 193.58165,471.70558 194.61237,472.639295 C195.641708,473.571617 196.228914,474.630756 200.137636,474.630756 C204.044976,474.630756 217.279916,474.630756 217.279916,474.630756 C217.279916,474.630756 220.431487,474.609852 221.691563,470.160073 C222.95302,465.708901 226.104591,450.494922 226.566066,449.307571 C226.566066,449.307571 226.818911,447.909785 228.710406,447.909785 C230.600519,447.909785 232.112058,447.909785 232.112058,447.909785 C232.112058,447.909785 233.163502,447.781574 233.163502,445.451467 C233.163502,443.118574 234.972098,435.531791 223.627271,435.278155 C223.627271,435.278155 213.37534,460.537235 211.022369,463.249189 C208.668017,465.962537 200.831231,466.416852 200.831231,466.416852" id="Fill-143" fill="#285173"></path>
                    <path d="M221.223051,365.21133 L215.927733,435.017303 L209.028658,461.761339 C209.028658,461.761339 208.477845,463.364399 206.490188,463.61839 C204.502532,463.870994 201.075249,464.251287 200.610674,466.9522 C200.610674,466.9522 209.112115,466.9522 210.678316,466.9522 C212.243127,466.9522 213.639633,466.234639 214.062479,464.757881 C214.169582,464.384528 218.553833,452.857764 224.719881,435.75013 C225.832635,432.660597 230.867847,396.443934 230.867847,396.443934 L221.223051,365.21133" id="Fill-144" fill="#E2896D"></path>
                    <path d="M228.909067,154.334675 L222.250265,165.785118 C222.250265,165.785118 223.619806,173.573751 220.936284,191.80923 C218.251373,210.046097 216.8985,279.676004 217.15963,300.398959 C217.422148,321.123303 218.923643,386.354319 214.151085,421.042956 C214.151085,421.042956 213.435757,425.398816 215.977602,425.713914 C218.518059,426.027625 223.372567,426.631449 225.240753,426.863262 C227.107551,427.095075 230.470288,427.512893 231.706486,419.97273 C232.941295,412.432567 241.146038,318.695515 243.361471,305.176802 C245.342166,293.100326 277.330526,222.65838 272.864934,181.045897 C271.196761,177.311906 269.824443,175.550406 269.824443,175.550406 L263.837911,163.025573 C255.002567,156.634758 238.158328,146.512727 228.909067,154.334675" id="Fill-145" fill="#00446B"></path>
                    <path d="M276.097981,443.436621 L276.653832,447.927942 L274.634764,473.420537 C274.634764,473.420537 274.494729,474.630756 273.643091,474.630756 C272.792882,474.630756 272.301332,474.630756 272.301332,474.630756 C272.301332,474.630756 271.604018,474.586191 271.535429,472.870437 C271.466841,471.154683 272.204165,444.918409 272.204165,444.918409 L276.097981,443.436621" id="Fill-146" fill="#285173"></path>
                    <path d="M245.174093,466.416852 C245.174093,466.416852 244.271842,466.416852 243.76752,466.416852 C243.263199,466.416852 240.510848,468.335845 238.62068,470.624143 C238.62068,470.624143 237.927065,471.70558 238.956433,472.639295 C239.985802,473.571617 240.574407,474.630756 244.480479,474.630756 C248.389314,474.630756 261.62602,474.630756 261.62602,474.630756 C261.62602,474.630756 264.777683,474.609852 266.037795,470.160073 C267.297908,465.708901 270.44957,450.494922 270.91244,449.307571 C270.91244,449.307571 271.165292,447.909785 273.05546,447.909785 C274.945629,447.909785 276.459974,447.909785 276.459974,447.909785 C276.459974,447.909785 277.508686,447.781574 277.508686,445.451467 C277.508686,443.118574 279.317334,435.531791 267.970797,435.278155 C267.970797,435.278155 257.719948,460.537235 255.36691,463.249189 C253.013871,465.962537 245.174093,466.416852 245.174093,466.416852" id="Fill-147" fill="#285173"></path>
                    <path d="M253.288255,355.293195 L260.222913,435.029609 L253.274246,461.763339 C253.274246,461.763339 252.719473,463.365781 250.717529,463.619675 C248.715584,463.872181 245.263665,464.252327 244.795751,466.9522 C244.795751,466.9522 253.359703,466.9522 254.935762,466.9522 C256.51182,466.9522 257.918365,466.234916 258.344251,464.758727 C258.452123,464.385517 262.867889,452.863195 269.076859,435.762154 C270.199013,432.673811 271.691015,393.245408 271.691015,393.245408 L253.288255,355.293195" id="Fill-148" fill="#E2896D"></path>
                    <path d="M227.444172,156.448174 L222.703213,168.605657 C222.703213,168.605657 225.328269,176.152877 225.630143,194.541156 C225.932018,212.930823 235.909178,282.056975 239.535846,302.549032 C243.163904,323.039701 255.256968,387.458387 256.163983,422.399171 C256.163983,422.399171 256.163983,426.799749 258.733394,426.799749 C261.301414,426.799749 266.214873,426.799749 268.105414,426.799749 C269.993173,426.799749 273.394478,426.799749 273.394478,419.18032 C273.394478,411.562279 266.292776,317.719848 266.292776,304.058476 C266.292776,294.57689 278.530517,247.963257 278.735013,208.567738 C277.726446,185.659459 269.926399,175.673799 269.926399,175.673799 L262.553428,160.266915 C252.565138,155.042878 235.098151,147.840038 227.444172,156.448174" id="Fill-149" fill="#02517E"></path>
                    <path d="M217.037166,67.6324266 C217.037166,67.6324266 214.524643,69.1442536 213.91846,72.7634757 C213.31367,76.3854744 214.902288,78.9496107 214.902288,78.9496107 C214.902288,78.9496107 199.156859,113.566145 198.853071,119.600958 C198.550676,125.632995 218.536598,164.551781 221.262331,178.126293 C221.262331,178.126293 221.56612,180.991684 225.350931,181.445649 C229.135742,181.898225 259.720808,181.143006 266.988036,177.97636 C266.988036,177.97636 271.530924,175.863412 271.530924,172.394123 C271.530924,168.924834 264.113196,150.22066 263.507013,110.399499 C262.902224,70.5769491 238.345543,60.6286001 238.345543,60.6286001 L217.037166,67.6324266" id="Fill-150" fill="#E6711D"></path>
                    <path d="M213.84814,72.6889274 C213.301244,76.246668 214.847544,78.7541736 214.847544,78.7541736 C214.847544,78.7541736 213.714886,81.2575116 212.051989,85.0347458 C213.523333,85.5904257 214.72123,86.0808132 215.112663,86.336426 C216.39662,87.1699458 223.967106,96.6095583 225.058122,97.9584713 C226.14775,99.3046058 228.521334,103.543054 228.521334,103.543054 L224.799942,118.246345 C224.799942,118.246345 208.504104,124.540809 199.009766,120.817753 C199.510856,123.32387 201.216783,127.806818 203.484875,133.258037 C207.376999,133.762317 213.558035,134.844504 216.588172,136.868568 C219.390668,138.737041 216.813038,150.047906 214.34923,158.665112 C216.427157,163.662064 218.284383,168.377008 219.584996,172.287605 L247.769578,119.916163 C247.769578,119.916163 251.826881,129.95591 264.166745,129.736416 C263.700356,123.894831 263.371386,117.40449 263.261729,110.225105 C262.899445,86.2058412 253.868719,73.0515086 246.750742,66.3875173 C234.442803,66.7375956 222.266731,68.4643709 213.84814,72.6889274" id="Fill-151" fill="#B65A17"></path>
                    <path d="M235.883886,92.9493733 C235.883886,92.9493733 227.734496,95.0547381 223.507703,106.794917 C219.282299,118.532326 202.680712,155.556273 200.719413,157.210093 C198.758114,158.866682 145.171047,159.452583 142.152703,160.05372 L129.050061,160.629925 C129.050061,160.629925 130.346018,166.650992 135.928496,166.950175 C136.573002,166.986188 137.335575,168.28819 139.37327,168.28819 C141.410965,168.28819 192.643641,172.63743 197.776076,173.238567 C202.905733,173.841089 211.056512,173.238567 218.903096,164.510999 C226.752458,155.780661 245.466747,121.468755 247.278031,116.048826 C249.087926,110.631667 251.654838,90.7664424 235.883886,92.9493733" id="Fill-152" fill="#EBA87F"></path>
                    <path d="M212.146603,58.1418217 L208.295036,64.2939929 C208.295036,64.2939929 212.597128,63.4256309 214.848367,67.0491319 C217.10237,70.6712436 217.10237,83.2020548 217.10237,84.2579831 C217.10237,85.3153006 223.406946,86.2197865 228.663984,85.4653536 C233.919639,84.7109207 238.723389,79.4271115 239.02466,77.6167503 C239.324549,75.8036104 230.900021,51.5103146 230.900021,51.5103146 L212.146603,58.1418217" id="Fill-153" fill="#E2896D"></path>
                    <path d="M221.658927,60.5975612 C221.59769,60.6114703 206.189585,65.0429107 206.128348,65.0568198 C195.770918,67.1487489 194.136999,62.4572083 193.914318,61.361171 C193.691638,60.2651336 192.786998,54.6500285 192.486379,54.2995191 C192.18576,53.9504006 189.729315,54.4455647 189.445397,53.0421362 C189.160088,51.6400986 189.020913,43.2682092 190.139882,32.5428995 C191.258852,21.8161988 200.326127,15.6016114 200.326127,15.6016114 C227.675478,-2.75423249 245.823946,51.5149166 221.658927,60.5975612" id="Fill-154" fill="#EBA87F"></path>
                    <path d="M221.651694,60.5864059 C221.590395,60.6003471 206.166815,65.0420228 206.105517,65.0559641 C201.317255,66.0234854 198.39303,65.542513 196.608403,64.6349389 C203.73298,64.6572449 210.6249,59.0263823 210.6249,59.0263823 C212.169905,55.0684673 214.166291,51.4019239 218.08244,45.0656352 C222.001375,38.7279523 220.902178,31.8340143 220.902178,31.8340143 L231.336883,35.1311151 C231.336883,35.1311151 231.84817,35.7305879 232.649232,36.7190211 C233.985264,46.8961186 230.949587,57.0871573 221.651694,60.5864059" id="Fill-155" fill="#E2896D"></path>
                    <path d="M215.357111,40.7874789 C215.357111,40.7874789 214.827416,34.758621 215.055421,33.1012745 C215.282036,31.4439279 217.926343,29.485624 219.284644,29.3344518 C220.645725,29.1832796 221.550795,33.6282968 221.62587,35.2107506 C221.700945,36.7932045 220.342644,44.3282368 219.434794,45.6846258 C218.529723,47.0410148 201.686518,80.1158261 224.345252,91.5688533 C247.003985,103.02188 249.421677,105.432314 251.234598,116.283426 C253.046128,127.133152 262.562574,128.940283 268.304418,125.776763 C274.043481,122.611855 289.30038,91.7200255 266.943337,71.5267492 C244.586293,51.3334729 242.169992,50.1282561 242.169992,29.0321074 C242.169992,7.93457176 218.604798,-8.64166712 201.384828,4.92222313 C201.384828,4.92222313 191.415153,-1.25642013 184.013318,4.01657688 C176.611484,9.29096078 176.547531,32.115188 189.64672,40.5946997 C189.785748,38.1495935 189.99707,35.4451369 190.29598,32.5728652 C190.315444,32.3884074 190.337688,32.2081103 190.359932,32.0278132 C190.359932,32.0278132 197.834061,31.3690353 201.534978,27.0724165 C201.534978,27.0724165 204.25575,33.4771246 210.977739,34.2302117 C210.977739,34.2302117 212.78927,39.8443864 213.09235,40.2216234 C213.39404,40.5974735 214.036348,41.1633291 215.357111,40.7874789" id="Fill-156" fill="#31364C"></path>
                    <path d="M178.998409,20.4761499 C179.525451,28.1355474 182.77092,36.3814629 189.543411,40.7754946 C189.683493,38.3309765 189.892923,35.6271703 190.191118,32.7555895 C190.210535,32.5725627 190.232727,32.3909224 190.254918,32.2106686 C190.254918,32.2106686 197.711176,31.5506626 201.403245,27.2564638 C201.403245,27.2564638 204.117511,33.6596314 210.823428,34.4125374 C203.691717,33.3254687 201.66954,23.580674 201.66954,23.580674 C189.569763,33.0176508 182.4117,26.0889742 178.998409,20.4761499 Z M219.704087,44.8422963 C219.550136,45.2998635 219.400345,45.6548248 219.260262,45.8641964 C218.357356,47.2202592 201.554423,80.2871152 224.15898,91.7373876 C246.763537,103.18766 249.175448,105.597514 250.984035,116.446016 C252.789847,127.293132 262.284926,129.099829 268.013041,125.937069 C272.907598,123.231876 284.738306,100.264776 274.13089,81.0427943 C208.773512,91.1564159 219.704087,44.8422963 219.704087,44.8422963 L219.704087,44.8422963 Z" id="Fill-157" fill="#101522"></path>
                    <path d="M142.288494,161.318189 C140.74192,160.956627 136.19799,157.92421 134.774975,156.568003 C132.671689,154.562092 130.282413,154.605036 126.843575,153.129694 C123.596325,151.73747 128.510933,158.094601 129.192591,159.015824 C129.192591,159.015824 125.714882,163.160635 122.945209,158.409064 C122.945209,158.409064 120.219961,160.818097 120.808604,162.297595 C120.961317,162.685478 123.553287,164.041685 123.758757,165.20395 C124.691699,170.481934 133.71292,172.76352 142.657784,167.687789 L142.288494,161.318189" id="Fill-158" fill="#EBA87F"></path>
                </g>
                <path d="M419.217969,126.546875 C419.217969,125.882809 419.046095,125.357424 418.702344,124.970703 C418.358592,124.583982 417.753129,124.203127 416.885937,123.828125 C415.112491,123.210934 413.782426,122.50977 412.895703,121.724609 C412.00898,120.939449 411.565625,119.839851 411.565625,118.425781 C411.565625,117.027337 412.081245,115.888676 413.1125,115.009766 C414.143755,114.130855 415.460148,113.691406 417.061719,113.691406 C418.686727,113.691406 420.007026,114.181636 421.022656,115.162109 C422.038286,116.142583 422.530469,117.378899 422.499219,118.871094 L422.475781,118.941406 L419.241406,118.941406 C419.241406,118.160152 419.046096,117.527346 418.655469,117.042969 C418.264842,116.558591 417.714066,116.316406 417.003125,116.316406 C416.339059,116.316406 415.821486,116.517576 415.45039,116.919922 C415.079295,117.322268 414.89375,117.828122 414.89375,118.4375 C414.89375,119.000003 415.100779,119.462889 415.514844,119.826172 C415.928908,120.189455 416.647651,120.593748 417.671094,121.039062 C419.288289,121.58594 420.505074,122.279293 421.321484,123.119141 C422.137895,123.958989 422.546094,125.093743 422.546094,126.523438 C422.546094,128.000007 422.053911,129.156246 421.069531,129.992188 C420.085151,130.828129 418.77657,131.246094 417.14375,131.246094 C415.518742,131.246094 414.110553,130.771489 412.91914,129.822266 C411.727728,128.873042 411.151562,127.511728 411.190625,125.738281 L411.214062,125.667969 L414.460156,125.667969 C414.460156,126.722662 414.68281,127.480466 415.128125,127.941406 C415.57344,128.402346 416.245308,128.632812 417.14375,128.632812 C417.846878,128.632812 418.368358,128.445314 418.708203,128.070312 C419.048048,127.695311 419.217969,127.187503 419.217969,126.546875 Z M434.302344,123.511719 L428.571875,123.511719 L428.571875,128.339844 L435.310156,128.339844 L435.310156,131 L425.232031,131 L425.232031,113.9375 L435.286719,113.9375 L435.286719,116.609375 L428.571875,116.609375 L428.571875,120.851562 L434.302344,120.851562 L434.302344,123.511719 Z M440.984375,124.882812 L440.984375,131 L437.644531,131 L437.644531,113.9375 L443.574219,113.9375 C445.277352,113.9375 446.621089,114.441401 447.605469,115.449219 C448.589849,116.457036 449.082031,117.777336 449.082031,119.410156 C449.082031,121.050789 448.587895,122.373042 447.599609,123.376953 C446.611323,124.380864 445.26954,124.882812 443.574219,124.882812 L440.984375,124.882812 Z M440.984375,122.210938 L443.574219,122.210938 C444.28516,122.210938 444.828123,121.949221 445.203125,121.425781 C445.578127,120.902341 445.765625,120.238285 445.765625,119.433594 C445.765625,118.62109 445.58008,117.947268 445.208984,117.412109 C444.837889,116.87695 444.292972,116.609375 443.574219,116.609375 L440.984375,116.609375 L440.984375,122.210938 Z M461.857812,116.609375 L458.014062,116.609375 L458.014062,131 L454.685937,131 L454.685937,116.609375 L450.865625,116.609375 L450.865625,113.9375 L461.857812,113.9375 L461.857812,116.609375 Z M473.133594,123.511719 L467.403125,123.511719 L467.403125,128.339844 L474.141406,128.339844 L474.141406,131 L464.063281,131 L464.063281,113.9375 L474.117969,113.9375 L474.117969,116.609375 L467.403125,116.609375 L467.403125,120.851562 L473.133594,120.851562 L473.133594,123.511719 Z M480.741406,113.9375 L483.8,126.464844 L483.870312,126.464844 L486.964062,113.9375 L491.311719,113.9375 L491.311719,131 L487.995312,131 L487.995312,126.042969 L488.276562,119.410156 L488.20625,119.398438 L484.948437,131 L482.733594,131 L479.510937,119.492188 L479.440625,119.503906 L479.733594,126.042969 L479.733594,131 L476.417187,131 L476.417187,113.9375 L480.741406,113.9375 Z M494.43125,131 L494.43125,113.9375 L499.458594,113.9375 C501.216415,113.9375 502.589448,114.328121 503.577734,115.109375 C504.566021,115.890629 505.060156,117.05468 505.060156,118.601562 C505.060156,119.414067 504.880471,120.134762 504.521094,120.763672 C504.161717,121.392581 503.62266,121.86328 502.903906,122.175781 C503.802348,122.38672 504.466404,122.843746 504.896094,123.546875 C505.325783,124.250004 505.540625,125.074214 505.540625,126.019531 C505.540625,127.652352 505.073833,128.890621 504.140234,129.734375 C503.206636,130.578129 501.868759,131 500.126562,131 L494.43125,131 Z M497.771094,123.476562 L497.771094,128.339844 L500.126562,128.339844 C500.829691,128.339844 501.355076,128.144533 501.702734,127.753906 C502.050392,127.363279 502.224219,126.781254 502.224219,126.007812 C502.224219,125.195308 502.075783,124.570315 501.778906,124.132812 C501.48203,123.69531 501.005472,123.476562 500.349219,123.476562 L497.771094,123.476562 Z M497.771094,121.144531 L499.610937,121.144531 C500.290628,121.128906 500.812108,120.931643 501.175391,120.552734 C501.538674,120.173826 501.720312,119.62891 501.720312,118.917969 C501.720312,118.12109 501.532814,117.537111 501.157812,117.166016 C500.782811,116.79492 500.21641,116.609375 499.458594,116.609375 L497.771094,116.609375 L497.771094,121.144531 Z M517.414063,123.511719 L511.683594,123.511719 L511.683594,128.339844 L518.421875,128.339844 L518.421875,131 L508.34375,131 L508.34375,113.9375 L518.398438,113.9375 L518.398438,116.609375 L511.683594,116.609375 L511.683594,120.851562 L517.414063,120.851562 L517.414063,123.511719 Z M524.096094,124.214844 L524.096094,131 L520.767969,131 L520.767969,113.949219 L526.334375,113.949219 C528.014071,113.949219 529.332417,114.392574 530.289453,115.279297 C531.246489,116.16602 531.725,117.39843 531.725,118.976562 C531.725,119.867192 531.525783,120.634762 531.127344,121.279297 C530.728904,121.923831 530.146879,122.437498 529.38125,122.820312 C530.256254,123.117189 530.887107,123.609372 531.273828,124.296875 C531.660549,124.984378 531.853906,125.843745 531.853906,126.875 L531.853906,128.082031 C531.853906,128.550784 531.908593,129.052732 532.017969,129.587891 C532.127344,130.12305 532.318749,130.511718 532.592188,130.753906 L532.592188,131 L529.146875,131 C528.873436,130.749999 528.701563,130.343753 528.63125,129.78125 C528.560937,129.218747 528.525781,128.644534 528.525781,128.058594 L528.525781,126.898438 C528.525781,126.046871 528.351955,125.386721 528.004297,124.917969 C527.656639,124.449216 527.158597,124.214844 526.510156,124.214844 L524.096094,124.214844 Z M524.096094,121.554688 L526.322656,121.554688 C527.002347,121.554688 527.517967,121.347658 527.869531,120.933594 C528.221096,120.519529 528.396875,119.929691 528.396875,119.164062 C528.396875,118.382809 528.221096,117.761721 527.869531,117.300781 C527.517967,116.839841 527.006253,116.609375 526.334375,116.609375 L524.096094,116.609375 L524.096094,121.554688 Z M550.596875,131 L540.51875,131 L540.51875,128.738281 L545.171094,122.84375 C545.788284,121.968746 546.231639,121.207034 546.501172,120.558594 C546.770705,119.910153 546.905469,119.320315 546.905469,118.789062 C546.905469,118.062496 546.764845,117.476565 546.483594,117.03125 C546.202342,116.585935 545.796096,116.363281 545.264844,116.363281 C544.717966,116.363281 544.298048,116.63281 544.005078,117.171875 C543.712108,117.71094 543.565625,118.417964 543.565625,119.292969 L540.319531,119.292969 L540.296094,119.234375 C540.264844,117.687492 540.702339,116.376958 541.608594,115.302734 C542.514848,114.22851 543.733586,113.691406 545.264844,113.691406 C546.827352,113.691406 548.046089,114.144527 548.921094,115.050781 C549.796098,115.957036 550.233594,117.191398 550.233594,118.753906 C550.233594,119.800786 549.989456,120.769527 549.501172,121.660156 C549.012888,122.550786 548.198443,123.714837 547.057813,125.152344 L544.83125,128.339844 L550.596875,128.339844 L550.596875,131 Z M563.021094,124.308594 C563.021094,126.582043 562.569926,128.306635 561.667578,129.482422 C560.76523,130.658209 559.556258,131.246094 558.040625,131.246094 C556.509367,131.246094 555.29063,130.658209 554.384375,129.482422 C553.478121,128.306635 553.025,126.582043 553.025,124.308594 L553.025,120.640625 C553.025,118.374989 553.476167,116.650397 554.378516,115.466797 C555.280864,114.283197 556.493742,113.691406 558.017188,113.691406 C559.540633,113.691406 560.755464,114.283197 561.661719,115.466797 C562.567973,116.650397 563.021094,118.374989 563.021094,120.640625 L563.021094,124.308594 Z M559.692969,120.347656 C559.692969,118.972649 559.548439,117.968753 559.259375,117.335938 C558.970311,116.703122 558.567971,116.40625 558.052344,116.445312 L557.982031,116.445312 C557.458591,116.40625 557.056252,116.703122 556.775,117.335938 C556.493749,117.968753 556.353125,118.972649 556.353125,120.347656 L556.353125,124.578125 C556.353125,125.968757 556.497655,126.982419 556.786719,127.619141 C557.075783,128.255863 557.482029,128.550781 558.005469,128.503906 L558.075781,128.503906 C558.591409,128.550781 558.989842,128.257816 559.271094,127.625 C559.552345,126.992184 559.692969,125.976569 559.692969,124.578125 L559.692969,120.347656 Z M572.5625,131 L569.234375,131 L569.234375,117.417969 L566.070313,117.488281 L566.070313,115.085938 L572.5625,113.925781 L572.5625,131 Z M582.373438,128.585938 C583.045316,128.585938 583.601951,128.265628 584.04336,127.625 C584.484768,126.984372 584.705469,126.085943 584.705469,124.929688 L584.705469,124.273438 C584.392967,124.726565 584.027737,125.070311 583.609766,125.304688 C583.191795,125.539064 582.74844,125.65625 582.279688,125.65625 C580.943743,125.65625 579.894926,125.130865 579.133203,124.080078 C578.371481,123.029292 577.990625,121.597665 577.990625,119.785156 C577.990625,118.07421 578.461324,116.630865 579.402735,115.455078 C580.344145,114.279291 581.533587,113.691406 582.971094,113.691406 C584.463289,113.691406 585.67812,114.294916 586.615625,115.501953 C587.55313,116.70899 588.021875,118.390614 588.021875,120.546875 L588.021875,124.71875 C588.021875,126.71876 587.488677,128.306635 586.422266,129.482422 C585.355854,130.658209 584.006258,131.246094 582.373438,131.246094 C581.88906,131.246094 581.377347,131.183594 580.838281,131.058594 C580.299216,130.933593 579.799221,130.753907 579.338281,130.519531 L579.713281,128.035156 C580.142971,128.222657 580.566795,128.361328 580.984766,128.451172 C581.402737,128.541016 581.865623,128.585938 582.373438,128.585938 Z M582.9125,123.148438 C583.303127,123.148438 583.648827,123.052735 583.94961,122.861328 C584.250392,122.669921 584.502343,122.410158 584.705469,122.082031 L584.705469,120.136719 C584.705469,118.902338 584.54922,117.968753 584.236719,117.335938 C583.924217,116.703122 583.514065,116.402344 583.00625,116.433594 L582.935938,116.433594 C582.459373,116.402344 582.068752,116.724606 581.764063,117.400391 C581.459374,118.076175 581.307031,118.871089 581.307031,119.785156 C581.307031,120.808599 581.443749,121.624997 581.717188,122.234375 C581.990627,122.843753 582.38906,123.148438 582.9125,123.148438 Z" id="SEPTEMBER2019" fill="#FFFFFF" fill-rule="nonzero"></path>
            </g>
        </g>
    </g>
</svg>