<?xml version="1.0" encoding="UTF-8"?>
<svg width="299px" height="268px" viewBox="0 0 299 268" version="1.1" xmlns="http://www.w3.org/2000/svg" xmlns:xlink="http://www.w3.org/1999/xlink">
    <!-- Generator: Sketch 54.1 (76490) - https://sketchapp.com -->
    <title>Group</title>
    <desc>Created with Sketch.</desc>
    <defs>
        <rect id="path-1" x="0" y="0" width="321" height="280"></rect>
    </defs>
    <g id="Website" stroke="none" stroke-width="1" fill="none" fill-rule="evenodd">
        <g id="Desktop-HD-Copy" transform="translate(-1014.000000, -1015.000000)">
            <g id="Group" transform="translate(1002.000000, 1003.000000)">
                <mask id="mask-2" fill="white">
                    <use xlink:href="#path-1"></use>
                </mask>
                <g id="Mask"></g>
                <g mask="url(#mask-2)" fill="#E7E39E">
                    <g transform="translate(12.000000, 12.000000)">
                        <path d="M205.658989,80.7688646 L209,46.3850583 C209,14.2585834 178.89338,0 150.134571,0 C121.374261,0 114.887357,21.4802274 114.887357,21.4802274 C105.4887,22.6035942 99.0753404,28.402105 95.0214005,33.8887377 C91.13256,39.1528165 89.4515482,45.7446483 90.1569728,52.2698654 L93.367405,81.9194829 C93.4754701,85.5439306 93.8161751,89.2546748 94.3715094,92.9987262 C93.0086891,95.4241085 92.2132104,98.3385036 92.2132104,101.473939 C92.2132104,107.871982 95.5197004,113.343475 100.208522,115.620488 C102.68051,122.327382 105.755861,128.789012 109.323508,134.682903 C115.104988,144.228493 114.977411,156.455327 108.585064,165.596687 C108.310399,165.990319 108.026728,166.376382 107.735553,166.753361 L149.499689,208 L191.263825,166.753361 C190.974151,166.376382 190.69048,165.991833 190.415815,165.598201 C184.023468,156.456841 183.895891,144.231521 189.67587,134.684417 C193.245018,128.790526 196.320369,122.327382 198.793857,115.618974 C203.481178,113.341961 206.786168,107.871982 206.786168,101.473939 C206.786168,98.3385036 205.990689,95.4241085 204.629369,92.9987262 C205.243239,88.8565003 205.59445,84.7566655 205.658989,80.7688646" id="Fill-3"></path>
                        <path d="M101.340079,166.217413 L101.253049,166.130752 L101.353583,166 C101.353583,166 64.9856742,176.878236 39.2714,182.640433 C27.8570053,185.197693 18.8404287,194.066002 15.8949236,205.52806 L0,267.411617 C0,267.411617 36.1293279,302 148,302 C97.3727252,253.710057 101.086492,170.918392 101.340079,166.217413" id="Fill-4"></path>
                        <path d="M282.78168,205.580876 C279.778061,194.125094 270.577371,185.26164 258.93184,182.70578 C232.618786,176.930023 195.529751,166 195.529751,166 L195.692026,166.206657 L195.574147,166.322142 C195.849709,171.408029 199.485588,253.826147 148,301.969609 L148.001531,302 C262.137537,302 299,267.430554 299,267.430554 L282.78168,205.580876" id="Fill-5"></path>
                        <path d="M136.790055,195.060107 L149.500734,182 L162.209945,195.060107 C164.596685,197.512461 164.596685,201.487539 162.209945,203.939893 L149.500734,217 L136.790055,203.939893 C134.403315,201.487539 134.403315,197.512461 136.790055,195.060107" id="Fill-6"></path>
                        <polyline id="Fill-7" points="149.015911 301.984828 172 292.227409 156.553019 200 141.446981 200 126 292.227409 148.982574 301.984828 148.982574 302 148.999242 301.992414 149.015911 302 149.015911 301.984828"></polyline>
                    </g>
                </g>
            </g>
        </g>
    </g>
</svg>